<?xml version="1.0" encoding="utf-8"?>
<!-- Generator: Adobe Illustrator 15.0.0, SVG Export Plug-In . SVG Version: 6.00 Build 0)  -->
<!DOCTYPE svg PUBLIC "-//W3C//DTD SVG 1.1//EN" "http://www.w3.org/Graphics/SVG/1.1/DTD/svg11.dtd">
<svg version="1.1" id="Layer_1" xmlns="http://www.w3.org/2000/svg" xmlns:xlink="http://www.w3.org/1999/xlink" x="0px" y="0px"
	 width="197.487px" height="343.299px" viewBox="47.679 15.005 197.487 343.299"
	 enable-background="new 47.679 15.005 197.487 343.299" xml:space="preserve">
<g>
	<g>
		<g>
			<path fill="#007AC2" d="M204.884,350.623c0.21,0,0.399-0.016,0.399-0.268c0-0.202-0.185-0.241-0.358-0.241h-0.339v0.509H204.884
				 M204.586,351.546h-0.246v-1.643h0.625c0.387,0,0.579,0.144,0.579,0.468c0,0.293-0.184,0.422-0.425,0.452l0.467,0.724h-0.28
				l-0.433-0.712h-0.287V351.546z M204.886,351.91c0.646,0,1.154-0.504,1.154-1.189c0-0.674-0.509-1.183-1.154-1.183
				c-0.649,0-1.158,0.51-1.158,1.183C203.728,351.406,204.237,351.91,204.886,351.91z M203.442,350.72
				c0-0.817,0.664-1.419,1.444-1.419c0.778,0,1.44,0.602,1.44,1.419c0,0.825-0.662,1.43-1.44,1.43
				C204.106,352.149,203.442,351.546,203.442,350.72z"/>
			<g>
				<path fill="#007AC2" d="M179.965,340.463h-3.305v0.33c0.569,0.053,1.152,0.122,1.152,0.803c0,0.368-0.133,0.89-0.267,1.258
					l-2.086,5.917l-2.202-5.95c-0.25-0.682-0.45-1.067-0.45-1.363c0-0.628,0.767-0.663,1.283-0.663v-0.33h-4.455v0.33
					c0.884,0.019,1.135,0.122,1.686,1.572l0.551,1.431l-1.787,4.922l-2.402-6.563c-0.082-0.226-0.183-0.523-0.183-0.768
					c0-0.454,0.333-0.559,1.085-0.595v-0.33H164.5v0.33c0.952,0.088,1.186,0.595,1.719,2.042c0.635,1.746,2.369,6.702,3.219,9.372
					h0.25l2.569-7.382c0.719,1.902,2.086,5.567,2.671,7.382h0.248c0.985-3.367,2.319-7.104,3.474-10.35
					c0.231-0.68,0.498-0.924,1.315-1.064L179.965,340.463"/>
				<path fill="#007AC2" d="M181.899,351.702c-2.002,0-2.386-3.214-2.386-4.505c0-1.815,0.919-2.723,1.97-2.723
					c1.535,0,2.385,1.903,2.385,4.066C183.868,351.037,182.749,351.702,181.899,351.702 M181.616,343.988
					c-2.235,0-3.604,1.9-3.604,4.048c0,2.356,1.499,4.155,3.653,4.155c2.535,0,3.704-2.426,3.704-4.155
					C185.368,345.506,183.801,343.988,181.616,343.988z"/>
				<path fill="#007AC2" d="M186.862,350.549c0,0.978-0.266,1.03-1.184,1.205v0.262h4.005v-0.262
					c-0.851-0.035-1.419-0.106-1.419-1.31v-3.928c0-0.559,0.734-1.431,1.133-1.431c0.401,0,0.568,0.61,1.152,0.61
					c0.401,0,0.634-0.333,0.634-0.769c0-0.576-0.332-0.941-0.9-0.941c-0.634,0-1.201,0.349-1.985,1.587h-0.033v-1.553l-0.082-0.034
					c-0.818,0.349-1.653,0.662-2.469,0.941v0.28c0.15-0.035,0.334-0.07,0.567-0.07c0.266,0,0.582,0.018,0.582,1.047L186.862,350.549
					"/>
				<path fill="#007AC2" d="M190.931,352.016h3.938v-0.262c-0.969-0.052-1.252-0.193-1.252-1.205v-10.42l-0.066-0.034
					c-0.884,0.296-1.768,0.542-2.652,0.768v0.28c0.199-0.018,0.352-0.035,0.566-0.035c0.652,0,0.75,0.28,0.75,1.064v8.327
					c0,0.958-0.298,1.186-1.283,1.256V352.016"/>
				<path fill="#007AC2" d="M200.111,350.235c-0.135,0.628-0.783,1.047-1.485,1.047c-1.102,0-2.303-0.979-2.303-3.577
					c0-2.375,1.136-3.229,2.069-3.229c0.783,0,1.6,0.56,1.718,1.746L200.111,350.235 M202.636,351.004
					c-1.117,0.087-1.117-0.263-1.117-0.977v-9.897l-0.083-0.034c-0.802,0.296-1.619,0.542-2.452,0.768v0.28
					c0.133-0.018,0.3-0.018,0.398-0.018c0.734,0,0.734,0.366,0.734,0.891v2.723c-0.552-0.507-1.052-0.75-1.769-0.75
					c-1.869,0-3.453,2.006-3.453,4.293c0,3.56,2.384,3.909,3.037,3.909c1.233,0,1.852-0.646,2.151-1.117h0.035v1.063l0.066,0.054
					c0.882-0.333,1.65-0.611,2.451-0.908V351.004z"/>
			</g>
			<path fill="#0074CD" d="M89.937,334.113c0.196,0,0.409,0.038,0.636,0.112c0.227,0.076,0.417,0.189,0.566,0.34
				c0.546,0.456,1.049,1.001,1.511,1.637c0.462,0.635,0.864,1.316,1.204,2.045c0.342,0.727,0.603,1.472,0.784,2.236
				s0.273,1.512,0.273,2.239c0,1.166-0.125,2.226-0.375,3.179c-0.25,0.955-0.579,1.807-0.988,2.557
				c-0.408,0.748-0.878,1.403-1.408,1.964s-1.083,1.023-1.659,1.388c-0.575,0.362-1.147,0.636-1.715,0.816
				c-0.568,0.183-1.087,0.272-1.555,0.272c-0.5,0-0.943-0.1-1.328-0.294c-0.388-0.198-0.724-0.417-1.011-0.658
				c-0.137-0.136-0.262-0.265-0.375-0.386c-0.114-0.121-0.208-0.244-0.285-0.363c-0.061-0.122-0.114-0.229-0.159-0.318
				c-0.044-0.092-0.066-0.16-0.066-0.206c-0.304,0.123-0.619,0.222-0.944,0.296c-0.325,0.077-0.647,0.113-0.965,0.113
				c-0.637,0-1.173-0.129-1.612-0.385c-0.44-0.259-0.796-0.596-1.067-1.011c-0.273-0.417-0.475-0.893-0.602-1.433
				c-0.129-0.536-0.194-1.077-0.194-1.622c0-0.97,0.118-1.946,0.352-2.931c0.235-0.985,0.573-1.923,1.012-2.816
				c0.439-0.91,0.977-1.751,1.614-2.522c0.635-0.772,1.348-1.424,2.135-1.953c0.167-0.121,0.348-0.238,0.544-0.353
				c0.198-0.112,0.372-0.169,0.523-0.169c0.227,0,0.342,0.09,0.342,0.271c0,0.122-0.046,0.221-0.137,0.296s-0.159,0.136-0.205,0.183
				c-0.65,0.665-1.242,1.403-1.771,2.213c-0.531,0.812-0.985,1.663-1.364,2.556c-0.378,0.894-0.674,1.813-0.887,2.761
				c-0.212,0.947-0.317,1.89-0.317,2.828c0,0.349,0.026,0.702,0.08,1.067c0.052,0.363,0.151,0.695,0.294,0.999
				c0.144,0.304,0.342,0.554,0.592,0.75c0.25,0.195,0.564,0.295,0.942,0.295c0.226,0,0.455-0.033,0.682-0.103
				c0.226-0.067,0.409-0.186,0.545-0.352c-0.015-0.016-0.044-0.205-0.09-0.568c-0.046-0.362-0.092-0.772-0.138-1.225
				c-0.046-0.457-0.087-0.88-0.125-1.272c-0.037-0.394-0.048-0.63-0.033-0.703c0-0.485,0.033-0.929,0.101-1.33
				s0.186-0.776,0.353-1.125c0.333-0.682,0.688-1.233,1.067-1.659c0.242-0.212,0.477-0.389,0.704-0.534
				c0.227-0.143,0.446-0.268,0.659-0.375c0.455-0.209,0.819-0.317,1.091-0.317c0.363,0,0.662,0.103,0.896,0.307
				c0.236,0.205,0.428,0.455,0.58,0.748c0.152,0.296,0.257,0.618,0.319,0.967c0.06,0.349,0.089,0.659,0.089,0.931
				c0,1.076-0.295,2.133-0.885,3.169c-0.592,1.039-1.463,2.048-2.613,3.033c0.167,0.439,0.408,0.766,0.727,0.976
				c0.316,0.213,0.749,0.319,1.294,0.319c0.546,0,1.129-0.22,1.75-0.658c0.302-0.181,0.597-0.428,0.886-0.738
				c0.287-0.311,0.56-0.67,0.817-1.079c0.272-0.408,0.514-0.87,0.729-1.386c0.211-0.515,0.408-1.067,0.589-1.658
				c0.333-1.196,0.5-2.598,0.5-4.201c0-0.636-0.064-1.285-0.194-1.943c-0.127-0.658-0.316-1.294-0.566-1.906
				s-0.561-1.193-0.932-1.739c-0.371-0.544-0.792-1.021-1.26-1.432L89.937,334.113z M85.349,348.061
				c0.348-0.425,0.636-0.84,0.863-1.248c0.225-0.412,0.416-0.813,0.569-1.207c0.271-0.831,0.408-1.702,0.408-2.61
				c0-0.152-0.004-0.314-0.012-0.488s-0.029-0.341-0.067-0.501c-0.039-0.158-0.092-0.29-0.158-0.396
				c-0.069-0.107-0.165-0.159-0.285-0.159c-0.181,0-0.34,0.118-0.477,0.353c-0.136,0.235-0.261,0.53-0.374,0.886
				c-0.114,0.355-0.209,0.754-0.285,1.192c-0.075,0.439-0.136,0.865-0.182,1.283c-0.043,0.417-0.079,0.794-0.102,1.135
				c-0.023,0.34-0.033,0.595-0.033,0.761v0.59C85.227,347.879,85.272,348.015,85.349,348.061z M98.092,342.632
				c0.029-0.091,0.083-0.137,0.158-0.137h0.067h0.16c0.075,0,0.151,0.021,0.227,0.067c0.075,0.046,0.144,0.099,0.204,0.158
				c0.061,0.091,0.114,0.18,0.16,0.262c0.044,0.082,0.076,0.162,0.09,0.238c0.029,0.091,0.071,0.224,0.125,0.397
				c0.052,0.175,0.113,0.363,0.182,0.567c0.068,0.205,0.129,0.41,0.182,0.613c0.053,0.205,0.095,0.39,0.125,0.556
				c0.061,0.5,0.122,0.947,0.181,1.341c0.062,0.395,0.109,0.777,0.149,1.147c0.038,0.371,0.067,0.741,0.09,1.113
				c0.023,0.371,0.034,0.782,0.034,1.237v0.84c-0.016,0.076-0.022,0.151-0.022,0.229c0,0.061-0.008,0.129-0.023,0.203
				c-0.075,0.046-0.158,0.067-0.25,0.067c-0.227,0-0.427-0.101-0.601-0.308c-0.175-0.203-0.322-0.457-0.444-0.759l-0.09-1.342
				h-0.773c-0.378,0-0.654-0.002-0.828-0.012c-0.175-0.006-0.308-0.012-0.398-0.012c-0.031,0-0.076,0.009-0.136,0.023
				c-0.153,0.062-0.296,0.288-0.432,0.682c-0.061,0.198-0.121,0.39-0.181,0.581c-0.061,0.188-0.129,0.39-0.204,0.601l-0.249,0.637
				c-0.046,0.075-0.118,0.125-0.217,0.146c-0.099,0.024-0.208,0.036-0.33,0.036c-0.075,0-0.151,0-0.228,0
				c-0.06,0-0.135-0.016-0.227-0.046c-0.167-0.167-0.288-0.334-0.363-0.5c-0.076-0.168-0.114-0.38-0.114-0.638
				s0.062-0.554,0.181-0.886c0.123-0.333,0.289-0.688,0.5-1.066c0-0.183-0.054-0.353-0.158-0.512
				c-0.107-0.159-0.289-0.254-0.546-0.284l0.023-0.455h0.362h0.773c0.076-0.197,0.181-0.435,0.318-0.716
				c0.136-0.281,0.284-0.567,0.444-0.864c0.159-0.295,0.317-0.586,0.476-0.874c0.16-0.287,0.307-0.536,0.444-0.749l1.091-1.316
				L98.092,342.632z M97.273,347.333c0.061,0.017,0.113,0.022,0.159,0.022c0.062,0,0.114,0,0.16,0h0.317h0.318
				c0.061,0,0.121,0,0.181,0s0.112-0.007,0.158-0.022c0-0.105-0.002-0.242-0.01-0.408c-0.008-0.167-0.023-0.34-0.046-0.523
				c-0.022-0.181-0.053-0.363-0.089-0.545c-0.04-0.182-0.096-0.332-0.171-0.454c-0.076,0.031-0.16,0.119-0.25,0.262
				c-0.091,0.144-0.181,0.318-0.273,0.523c-0.092,0.203-0.179,0.412-0.262,0.625C97.384,347.022,97.319,347.197,97.273,347.333z
				 M102.817,342.949c0.15,0,0.249,0.042,0.295,0.125c0.045,0.082,0.068,0.2,0.068,0.352c0,0.212-0.013,0.406-0.036,0.578
				c-0.022,0.176-0.048,0.346-0.079,0.512c-0.031,0.152-0.073,0.314-0.125,0.489c-0.053,0.174-0.102,0.345-0.148,0.512
				c-0.122,0.363-0.24,0.785-0.352,1.269c-0.115,0.485-0.217,1.128-0.308,1.934v0.112c0,0.243,0.076,0.362,0.226,0.362
				c0.167,0,0.375-0.056,0.625-0.17c0.25-0.112,0.557-0.23,0.919-0.351c0.167-0.075,0.346-0.156,0.534-0.24
				c0.189-0.083,0.346-0.125,0.466-0.125c0.136,0,0.206,0.068,0.206,0.205c0.044,0.137,0.067,0.25,0.067,0.341
				c0,0.256-0.096,0.524-0.285,0.807c-0.19,0.28-0.427,0.545-0.715,0.795c-0.288,0.249-0.596,0.453-0.92,0.612
				c-0.325,0.157-0.624,0.239-0.897,0.239c-0.364,0-0.659-0.084-0.885-0.25c-0.227-0.166-0.401-0.382-0.523-0.646
				c-0.121-0.266-0.2-0.553-0.239-0.864c-0.039-0.31-0.057-0.617-0.057-0.919c0-0.423,0.053-0.895,0.16-1.408
				c0.106-0.516,0.233-1.015,0.386-1.499c0.152-0.484,0.311-0.932,0.477-1.34s0.311-0.727,0.431-0.956
				c0.076-0.105,0.159-0.189,0.25-0.248C102.451,343.116,102.605,343.041,102.817,342.949z M107.768,353.625
				c-0.121,0.076-0.221,0.129-0.295,0.16c-0.076,0.028-0.197,0.045-0.363,0.045c-0.228,0-0.447-0.083-0.659-0.25
				c-0.212-0.153-0.371-0.311-0.477-0.476c-0.09-0.153-0.167-0.319-0.227-0.5c-0.061-0.184-0.099-0.38-0.115-0.592
				c-0.029-0.227-0.044-0.438-0.044-0.637c0-0.197,0-0.386,0-0.566c0-0.987,0.071-1.876,0.215-2.671
				c0.144-0.793,0.321-1.488,0.533-2.078c-1.575-0.637-2.36-1.378-2.36-2.226c0-0.197,0.036-0.393,0.112-0.591
				c0.045-0.212,0.158-0.356,0.34-0.432c0.091,0,0.147,0.064,0.171,0.193c0.022,0.13,0.034,0.254,0.034,0.375
				c0,0.077,0.03,0.113,0.091,0.113c0.394,0.332,0.783,0.562,1.168,0.683c0.387,0.12,0.815,0.219,1.286,0.295
				c0.104-0.092,0.227-0.208,0.362-0.353c0.136-0.144,0.295-0.292,0.478-0.442c0.181-0.151,0.385-0.276,0.612-0.375
				c0.226-0.1,0.484-0.149,0.773-0.149c0.151,0,0.317,0.02,0.498,0.059c0.181,0.037,0.352,0.116,0.511,0.237
				c0.16,0.123,0.291,0.306,0.398,0.546c0.105,0.244,0.159,0.568,0.159,0.978c0,0.317-0.098,0.576-0.296,0.772
				c-0.198,0.198-0.439,0.348-0.727,0.455c-0.288,0.105-0.585,0.178-0.896,0.215c-0.313,0.039-0.564,0.057-0.76,0.057h-0.115
				c-0.212,0.758-0.345,1.533-0.398,2.329c-0.054,0.796-0.08,1.578-0.08,2.352C107.699,352.028,107.722,352.854,107.768,353.625z
				 M108.653,344.653c0.062,0.016,0.119,0.026,0.171,0.033c0.052,0.009,0.125,0.012,0.217,0.012c0.181,0,0.398-0.056,0.647-0.17
				c0.249-0.112,0.376-0.238,0.376-0.375c0-0.243-0.107-0.363-0.319-0.363c-0.227,0-0.462,0.067-0.704,0.203
				C108.798,344.146,108.67,344.365,108.653,344.653z M110.449,337.589c-0.075,0-0.158,0.008-0.25,0.023
				c-0.089,0.015-0.204,0.022-0.342,0.022c-0.242,0-0.476-0.022-0.703-0.068c-0.243-0.061-0.363-0.165-0.363-0.316
				c0-0.516,0.197-0.917,0.59-1.206c0.394-0.288,0.87-0.504,1.431-0.646c0.561-0.144,1.135-0.23,1.727-0.262
				c0.59-0.028,1.083-0.044,1.477-0.044c1.044,0,2.18,0.135,3.406,0.408c0.605,0.153,1.204,0.307,1.795,0.467
				c0.589,0.158,1.165,0.343,1.726,0.555c0.424,0.137,0.897,0.328,1.419,0.568c0.522,0.242,1.063,0.526,1.624,0.852
				c0.56,0.326,1.132,0.687,1.715,1.079c0.583,0.394,1.14,0.811,1.669,1.251c0.546,0.423,1.048,0.881,1.51,1.372
				c0.462,0.495,0.867,1.005,1.216,1.535s0.621,1.076,0.818,1.636c0.198,0.559,0.296,1.129,0.296,1.704
				c0,0.545-0.064,1.042-0.194,1.488c-0.127,0.447-0.321,0.873-0.579,1.282c-0.455,0.742-1.113,1.369-1.975,1.886
				c-0.394,0.259-0.823,0.481-1.284,0.67c-0.463,0.189-0.951,0.344-1.467,0.467c-0.515,0.121-1.029,0.212-1.544,0.271
				c-0.515,0.063-1.038,0.093-1.567,0.093c-0.531,0-1.083-0.034-1.658-0.104c-0.576-0.067-1.121-0.148-1.636-0.239
				c-0.046,0.121-0.087,0.245-0.125,0.375c-0.04,0.131-0.096,0.323-0.171,0.58c-0.137,0.044-0.262,0.075-0.375,0.09
				c-0.114,0.017-0.254,0.023-0.421,0.023l-0.521-0.045c-0.166-0.213-0.289-0.474-0.364-0.784c-0.076-0.311-0.16-0.646-0.25-1.009
				c-1.061-0.607-1.919-1.16-2.579-1.659c-0.659-0.5-1.141-0.932-1.442-1.295c-0.121-0.122-0.25-0.266-0.386-0.432
				c-0.136-0.166-0.266-0.332-0.385-0.5c-0.258-0.348-0.388-0.697-0.388-1.044c0-0.348,0.258-0.69,0.773-1.022
				c0.272-0.212,0.571-0.395,0.897-0.546s0.663-0.294,1.011-0.431c0.363-0.122,0.776-0.235,1.238-0.341
				c0.461-0.106,0.973-0.212,1.534-0.317l0.044-0.932c0-0.046,0.019-0.22,0.056-0.523c0.038-0.303,0.087-0.629,0.148-0.978
				c0.06-0.316,0.14-0.635,0.239-0.952c0.098-0.317,0.215-0.537,0.351-0.659c0.424,0.332,0.689,0.691,0.796,1.079
				c0.105,0.387,0.174,0.828,0.203,1.328c0.017,0.471,0.062,0.956,0.138,1.454h0.296c0.256,0,0.594,0.012,1.009,0.033
				c0.416,0.023,0.864,0.071,1.341,0.149c0.476,0.074,0.96,0.177,1.453,0.307c0.492,0.128,0.932,0.29,1.318,0.488
				c0.386,0.197,0.705,0.438,0.955,0.727c0.25,0.289,0.375,0.621,0.375,1c0,0.137-0.046,0.293-0.138,0.476s-0.208,0.354-0.352,0.513
				c-0.144,0.156-0.306,0.295-0.488,0.407c-0.181,0.114-0.372,0.171-0.569,0.171c-0.152,0-0.333-0.023-0.545-0.068
				c-0.213-0.044-0.378-0.112-0.498-0.204c0.106-0.09,0.203-0.184,0.295-0.284c0.09-0.099,0.189-0.192,0.294-0.284
				c0.106-0.075,0.197-0.158,0.273-0.25c0.075-0.09,0.121-0.172,0.136-0.249c-0.121-0.12-0.348-0.25-0.682-0.386
				c-0.332-0.135-0.723-0.26-1.17-0.375c-0.447-0.113-0.92-0.203-1.42-0.271c-0.499-0.07-0.969-0.104-1.408-0.104
				c-0.167,0-0.288,0.007-0.363,0.023c-0.077,0.016-0.16,0.038-0.25,0.066l0.022,4.909c0.181,0.119,0.37,0.219,0.568,0.294
				c0.198,0.074,0.394,0.129,0.591,0.157c0.211,0.031,0.394,0.052,0.544,0.058c0.152,0.009,0.304,0.011,0.455,0.011
				c0.319,0,0.674-0.007,1.066-0.022c0.394-0.015,0.802-0.052,1.228-0.113c0.424-0.061,0.852-0.136,1.283-0.227
				c0.432-0.091,0.844-0.22,1.239-0.386c0.408-0.152,0.791-0.337,1.147-0.557c0.356-0.219,0.667-0.484,0.931-0.795
				c0.265-0.31,0.473-0.662,0.624-1.056c0.15-0.394,0.227-0.849,0.227-1.362c0-1-0.289-1.938-0.863-2.817
				c-0.575-0.877-1.302-1.681-2.18-2.407c-0.879-0.727-1.845-1.371-2.896-1.932c-1.054-0.56-2.056-1.029-3.011-1.408
				c-0.681-0.257-1.352-0.485-2.01-0.682c-0.659-0.197-1.33-0.362-2.01-0.501c-0.667-0.136-1.349-0.23-2.045-0.283
				c-0.696-0.054-1.43-0.081-2.202-0.081c-0.304,0-0.611,0.014-0.921,0.036c-0.311,0.022-0.618,0.071-0.92,0.146
				c-0.364,0.076-0.545,0.175-0.545,0.296c0,0.03,0.042,0.061,0.125,0.091s0.177,0.058,0.283,0.08
				c0.106,0.021,0.205,0.045,0.296,0.066c0.09,0.023,0.151,0.042,0.181,0.059c0.075,0.046,0.113,0.104,0.113,0.182
				C110.516,337.505,110.494,337.559,110.449,337.589z M117.035,345.675c-0.485,0.046-0.996,0.097-1.533,0.148
				c-0.538,0.055-1.025,0.125-1.465,0.215c-0.439,0.092-0.806,0.202-1.102,0.332c-0.296,0.128-0.443,0.29-0.443,0.488
				c0,0.136,0.06,0.287,0.181,0.454c0.12,0.166,0.266,0.328,0.43,0.488c0.167,0.156,0.348,0.317,0.546,0.476
				c0.196,0.159,0.377,0.3,0.546,0.42c0.377,0.304,0.817,0.582,1.317,0.831c0.499,0.248,1.015,0.442,1.544,0.578l0.204-4.43
				L117.035,345.675L117.035,345.675z M136.548,337.589h0.091c0.091,0,0.208,0.026,0.352,0.08c0.144,0.053,0.283,0.128,0.421,0.227
				c0.135,0.1,0.252,0.228,0.352,0.387c0.098,0.157,0.148,0.335,0.148,0.532c0,0.424-0.159,0.879-0.477,1.361
				c-0.167,0.229-0.348,0.444-0.545,0.649c-0.197,0.203-0.424,0.39-0.683,0.556c-0.227,0.166-0.461,0.322-0.704,0.465
				c-0.242,0.146-0.498,0.277-0.771,0.399c-0.531,0.241-0.977,0.363-1.34,0.363c-0.243,0-0.492-0.016-0.749-0.046
				c-0.259-0.031-0.492-0.083-0.705-0.159c-0.123,0.152-0.221,0.28-0.295,0.387c-0.076,0.106-0.197,0.173-0.363,0.204
				c-0.135-0.031-0.257-0.144-0.365-0.341c-0.106-0.195-0.181-0.423-0.225-0.683c0-0.089,0.029-0.211,0.09-0.362
				c-0.181-0.228-0.325-0.442-0.431-0.647c-0.106-0.203-0.159-0.436-0.159-0.691c0-0.379,0.129-0.774,0.387-1.181
				c0.257-0.41,0.594-0.792,1.009-1.148c0.417-0.356,0.89-0.646,1.421-0.874c0.529-0.229,1.067-0.347,1.613-0.363
				c0.499,0,0.927,0.083,1.281,0.25C136.255,337.118,136.472,337.331,136.548,337.589z M131.278,340.27
				c0.016,0.016,0.046,0.023,0.09,0.023c0.062,0,0.099-0.008,0.115-0.023c0.076-0.105,0.185-0.239,0.329-0.396
				c0.144-0.158,0.304-0.326,0.477-0.502c0.175-0.173,0.348-0.343,0.523-0.511c0.174-0.166,0.329-0.311,0.465-0.432v-0.021
				c0-0.029-0.002-0.053-0.011-0.067c-0.008-0.016-0.012-0.03-0.012-0.045c-0.318,0.074-0.587,0.17-0.807,0.282
				c-0.22,0.113-0.421,0.27-0.602,0.468C131.514,339.391,131.324,339.8,131.278,340.27z M132.551,343.903
				c0.454,0.03,0.71,0.143,0.771,0.341c0.152,0.259,0.228,0.598,0.228,1.023c0.016,0.923,0.057,1.861,0.125,2.815
				c0.067,0.955,0.103,1.887,0.103,2.794c0,0.182-0.047,0.363-0.137,0.545c-0.091,0.167-0.288,0.25-0.591,0.25
				c-0.075,0-0.177-0.014-0.307-0.045c-0.129-0.03-0.238-0.062-0.33-0.092c-0.076-0.015-0.14-0.075-0.193-0.181
				c-0.054-0.107-0.096-0.227-0.125-0.364c-0.031-0.136-0.056-0.268-0.079-0.397c-0.023-0.129-0.033-0.216-0.033-0.261v-0.682
				c0-0.151,0-0.281,0-0.386c0-0.106,0.002-0.219,0.01-0.341c0.007-0.121,0.015-0.261,0.022-0.421
				c0.007-0.157,0.02-0.352,0.034-0.578c0.015-0.167,0.042-0.561,0.08-1.182c0.037-0.622,0.133-1.507,0.284-2.658
				C132.414,343.964,132.459,343.903,132.551,343.903z M132.643,341.087c0,0.031,0.021,0.066,0.066,0.113
				c0.045,0.046,0.083,0.067,0.112,0.067h0.5c0.302,0,0.654-0.049,1.057-0.146c0.402-0.1,0.78-0.245,1.135-0.433
				c0.356-0.189,0.659-0.421,0.909-0.692c0.25-0.273,0.376-0.585,0.376-0.933c0-0.12-0.016-0.24-0.045-0.363
				c-0.046-0.121-0.22-0.182-0.523-0.182c-0.333,0-0.663,0.073-0.987,0.217c-0.325,0.144-0.644,0.337-0.955,0.579
				c-0.31,0.242-0.606,0.518-0.885,0.829C133.122,340.454,132.868,340.769,132.643,341.087z M135.799,345.902l-0.046,0.046
				c0,0.045,0.015,0.068,0.046,0.068c0.211,0.074,0.415,0.145,0.612,0.203c0.198,0.063,0.379,0.12,0.546,0.181
				c0.166,0,0.348,0.01,0.544,0.023c0.198,0.016,0.41,0.038,0.637,0.067c0.197,0.016,0.404,0.027,0.624,0.033
				c0.22,0.01,0.436,0.026,0.648,0.058c0.225,0.017,0.441,0.051,0.647,0.104c0.203,0.053,0.404,0.115,0.601,0.193
				c0.35,0.136,0.652,0.355,0.909,0.658c0.135,0.167,0.239,0.345,0.308,0.533c0.066,0.19,0.102,0.429,0.102,0.717
				c0,0.604-0.144,1.097-0.432,1.477c-0.304,0.317-0.644,0.567-1.023,0.749c-0.348,0.166-0.725,0.271-1.134,0.317
				c-0.394,0.046-0.674,0.067-0.842,0.067c-0.484,0-0.951-0.071-1.397-0.215c-0.448-0.145-0.842-0.321-1.181-0.534
				c-0.34-0.212-0.611-0.45-0.807-0.716c-0.198-0.265-0.296-0.512-0.296-0.738c0-0.271,0.065-0.499,0.194-0.68
				c0.129-0.183,0.296-0.322,0.5-0.422s0.431-0.169,0.682-0.215c0.25-0.045,0.487-0.067,0.714-0.067
				c0.439,0,0.924,0.049,1.454,0.146c0.53,0.1,1.022,0.277,1.478,0.534c0.029,0.016,0.044,0.054,0.044,0.113
				c0,0.061-0.016,0.1-0.044,0.114c-0.092,0.105-0.252,0.21-0.477,0.317c-0.107,0.061-0.227,0.099-0.363,0.113
				c-0.137,0.016-0.281,0.023-0.433,0.023c-0.166,0-0.348-0.027-0.544-0.079c-0.198-0.054-0.402-0.113-0.615-0.183
				c-0.211-0.067-0.427-0.133-0.647-0.192c-0.22-0.063-0.444-0.093-0.669-0.093c-0.091,0-0.171,0.009-0.24,0.023
				c-0.068,0.015-0.14,0.038-0.215,0.067c-0.167,0.092-0.25,0.25-0.25,0.476c0,0.153,0.056,0.269,0.171,0.353
				c0.113,0.083,0.26,0.145,0.443,0.182c0.181,0.039,0.378,0.063,0.591,0.068c0.212,0.008,0.423,0.011,0.637,0.011
				c0.09,0,0.34-0.022,0.75-0.068c0.21-0.028,0.415-0.063,0.613-0.101c0.198-0.039,0.402-0.081,0.613-0.125
				c0.213-0.061,0.404-0.121,0.579-0.183c0.175-0.061,0.344-0.128,0.51-0.204c0.35-0.166,0.523-0.347,0.523-0.545
				c0-0.196-0.129-0.372-0.385-0.522c-0.257-0.15-0.568-0.276-0.932-0.375c-0.364-0.099-0.738-0.171-1.125-0.215
				c-0.385-0.046-0.7-0.075-0.943-0.092c-0.667,0-1.193-0.019-1.578-0.057c-0.386-0.037-0.677-0.105-0.874-0.204
				c-0.197-0.098-0.326-0.232-0.386-0.399c-0.061-0.165-0.09-0.369-0.09-0.612c0-0.348,0.104-0.649,0.317-0.908
				c0.212-0.259,0.481-0.47,0.806-0.637c0.326-0.166,0.677-0.298,1.056-0.396c0.379-0.1,0.739-0.174,1.08-0.229
				c0.341-0.052,0.629-0.086,0.863-0.103c0.234-0.014,0.374-0.022,0.422-0.022c0.544,0,1.061,0.042,1.544,0.125
				c0.484,0.084,0.916,0.164,1.296,0.24c0.09,0.029,0.159,0.067,0.203,0.113c0.045,0.046,0.068,0.129,0.068,0.249
				c-0.031,0.119-0.094,0.223-0.194,0.306c-0.098,0.084-0.208,0.156-0.329,0.216c-0.075,0.03-0.189,0.057-0.341,0.08
				c-0.151,0.022-0.28,0.033-0.386,0.033c-0.197,0.029-0.477,0.061-0.84,0.092c-0.365,0.029-0.738,0.061-1.125,0.09
				c-0.385,0.03-0.753,0.062-1.1,0.092c-0.35,0.03-0.615,0.06-0.796,0.091c-0.394,0.076-0.682,0.133-0.865,0.171
				C136.048,345.746,135.906,345.811,135.799,345.902z M146.611,343.153c0-0.106,0.016-0.21,0.045-0.317
				c0.029-0.106,0.092-0.157,0.182-0.157c0.167,0,0.394,0.127,0.682,0.384c0.289,0.258,0.568,0.63,0.841,1.114
				c0.256,0.483,0.479,1.055,0.67,1.715c0.19,0.658,0.284,1.39,0.284,2.19c0,0.349-0.038,0.706-0.113,1.07
				c-0.076,0.363-0.191,0.695-0.341,1c-0.151,0.302-0.333,0.548-0.545,0.736c-0.211,0.189-0.461,0.284-0.749,0.284
				c-0.212,0-0.429-0.106-0.648-0.317c-0.219-0.212-0.431-0.478-0.636-0.796c-0.204-0.318-0.401-0.662-0.591-1.034
				c-0.189-0.371-0.359-0.715-0.511-1.033c-0.153-0.317-0.285-0.582-0.398-0.795c-0.113-0.211-0.194-0.317-0.238-0.317
				c-0.045,0-0.107,0.083-0.181,0.249c-0.016,0.075-0.026,0.266-0.035,0.567c-0.007,0.303-0.019,0.637-0.033,0.999
				c-0.016,0.364-0.036,0.72-0.056,1.068c-0.023,0.349-0.058,0.606-0.104,0.772c0,0.076-0.016,0.175-0.044,0.296
				c-0.029,0.12-0.067,0.238-0.113,0.352c-0.046,0.114-0.11,0.211-0.193,0.295c-0.083,0.083-0.186,0.124-0.308,0.124
				c-0.181,0-0.332-0.067-0.454-0.204c-0.122-0.135-0.212-0.298-0.272-0.488c-0.061-0.188-0.102-0.385-0.126-0.59
				c-0.022-0.205-0.035-0.368-0.035-0.487c-0.016-0.318,0.013-0.778,0.08-1.375c0.068-0.599,0.17-1.197,0.307-1.796
				s0.303-1.12,0.5-1.566c0.197-0.447,0.416-0.671,0.658-0.671c0.091,0,0.193,0.035,0.308,0.103c0.112,0.068,0.23,0.194,0.352,0.376
				c0.121,0.136,0.25,0.302,0.385,0.499c0.136,0.198,0.281,0.401,0.432,0.614c0.137,0.212,0.277,0.439,0.421,0.681
				c0.144,0.244,0.298,0.492,0.466,0.749c0.152,0.259,0.302,0.494,0.455,0.705c0.152,0.212,0.31,0.416,0.477,0.612
				c0.106,0.121,0.152,0.182,0.136,0.182c0.107,0,0.157-0.128,0.157-0.385v-0.204c0-0.514-0.025-0.955-0.078-1.317
				c-0.053-0.362-0.125-0.72-0.215-1.067c-0.092-0.349-0.198-0.712-0.319-1.09c-0.121-0.377-0.25-0.841-0.386-1.387l-0.112-0.249
				v-0.093H146.611z M155.107,350.104c0,0.165-0.046,0.281-0.135,0.34c-0.152,0.121-0.354,0.273-0.603,0.456
				c-0.249,0.181-0.526,0.355-0.828,0.521c-0.304,0.167-0.634,0.308-0.988,0.421c-0.356,0.113-0.724,0.171-1.102,0.171
				c-0.606,0-1.067-0.203-1.386-0.614c-0.289-0.348-0.431-0.778-0.431-1.294c0-0.258,0.064-0.56,0.193-0.909
				c0.128-0.349,0.253-0.704,0.376-1.068c-0.029-0.119-0.068-0.216-0.113-0.283c-0.045-0.068-0.066-0.17-0.066-0.307
				c0-0.092,0.01-0.167,0.031-0.227c0.023-0.063,0.049-0.13,0.08-0.206c0.091-0.045,0.19-0.086,0.295-0.124
				c0.107-0.037,0.203-0.065,0.295-0.079l0.522-1.227c-0.138-0.06-0.277-0.125-0.421-0.193c-0.144-0.067-0.28-0.145-0.41-0.227
				c-0.128-0.084-0.234-0.174-0.318-0.274c-0.083-0.098-0.125-0.213-0.125-0.35c0-0.198,0.198-0.311,0.592-0.341
				c0.483-0.031,1.029-0.113,1.636-0.25c0.605-0.136,1.377-0.204,2.317-0.204c0.121,0,0.246,0.008,0.375,0.022
				c0.127,0.016,0.314,0.061,0.556,0.136c0.044,0.077,0.11,0.152,0.194,0.229c0.083,0.073,0.163,0.157,0.239,0.249
				c0.181,0.212,0.271,0.424,0.271,0.635c0,0.046-0.042,0.101-0.125,0.161c-0.083,0.06-0.189,0.116-0.316,0.169
				c-0.129,0.054-0.263,0.099-0.398,0.137c-0.138,0.038-0.258,0.057-0.365,0.057c-0.256,0.016-0.465,0.027-0.625,0.034
				c-0.156,0.009-0.298,0.011-0.421,0.011h-0.794c-0.181,0-0.287,0.008-0.318,0.023c-0.044,0.061-0.109,0.162-0.192,0.308
				c-0.083,0.143-0.125,0.35-0.125,0.624c0,0.061,0.019,0.115,0.056,0.169s0.095,0.08,0.171,0.08h1.704l0.34,0.045
				c0.062,0.075,0.098,0.178,0.112,0.307c0.017,0.129,0.023,0.254,0.023,0.375c0,0.091-0.015,0.197-0.046,0.319
				c-0.029,0.12-0.107,0.188-0.227,0.202c-0.212,0-0.554,0.008-1.023,0.023c-0.469,0.015-1,0.022-1.587,0.022
				c-0.048,0-0.094,0.045-0.138,0.135c-0.046,0.258-0.117,0.512-0.217,0.763c-0.098,0.25-0.207,0.504-0.327,0.762
				c0.073,0,0.321-0.042,0.736-0.125c0.417-0.083,0.988-0.164,1.714-0.239c0.121-0.016,0.249-0.026,0.386-0.034
				c0.138-0.007,0.273-0.013,0.408-0.013c0.122,0,0.245,0.077,0.365,0.229C155.047,349.787,155.107,349.938,155.107,350.104z
				 M156.243,358.305c-0.212-0.029-0.413-0.094-0.6-0.192c-0.192-0.099-0.345-0.232-0.467-0.398
				c-0.319-0.364-0.477-0.78-0.477-1.249c0-0.107,0.026-0.333,0.079-0.682c0.054-0.349,0.144-0.784,0.273-1.307
				c0.129-0.523,0.298-1.122,0.511-1.794c0.21-0.675,0.477-1.391,0.794-2.148c-0.121-0.256-0.224-0.533-0.307-0.827
				c-0.083-0.296-0.125-0.581-0.125-0.852c0-0.304,0.036-0.604,0.104-0.9c0.067-0.293,0.162-0.593,0.285-0.896
				c0.12-0.317,0.249-0.607,0.386-0.873c0.136-0.264,0.28-0.519,0.432-0.763c0.166-0.256,0.321-0.488,0.464-0.691
				c0.145-0.204,0.3-0.391,0.467-0.556c0.319-0.318,0.515-0.478,0.592-0.478c0.181,0.029,0.293,0.092,0.339,0.183
				c0.046,0.092,0.067,0.235,0.067,0.43c0,0.123-0.022,0.236-0.067,0.342c-0.046,0.105-0.106,0.219-0.182,0.34
				c-0.074,0.122-0.174,0.28-0.295,0.476c-0.121,0.199-0.273,0.425-0.454,0.683c-0.198,0.273-0.379,0.63-0.546,1.068
				c-0.106,0.212-0.189,0.42-0.248,0.625c-0.063,0.204-0.091,0.405-0.091,0.6c0,0.154,0.029,0.251,0.091,0.296h0.046
				c0.028-0.03,0.052-0.06,0.067-0.091c0.135-0.195,0.283-0.393,0.442-0.591c0.158-0.197,0.343-0.416,0.556-0.659
				c0.212-0.256,0.412-0.495,0.602-0.714c0.188-0.221,0.39-0.437,0.602-0.648c0.225-0.212,0.441-0.411,0.646-0.601
				c0.204-0.189,0.412-0.36,0.624-0.511c0.378-0.318,0.72-0.478,1.023-0.478c0.289,0,0.529,0.107,0.728,0.32
				c0.196,0.21,0.35,0.468,0.466,0.771c0.113,0.303,0.193,0.612,0.238,0.931c0.046,0.318,0.067,0.592,0.067,0.818
				c0,0.683-0.196,1.296-0.59,1.84c-0.333,0.592-0.756,1.076-1.272,1.455c-0.272,0.228-0.541,0.417-0.807,0.567
				c-0.265,0.151-0.54,0.288-0.828,0.41c-0.272,0.12-0.531,0.207-0.772,0.259c-0.244,0.055-0.454,0.08-0.638,0.08
				c-0.075,0-0.154,0.004-0.237,0.011c-0.083,0.01-0.171,0.021-0.262,0.034c-0.227,0.651-0.414,1.224-0.557,1.716
				c-0.142,0.491-0.271,0.963-0.386,1.42c-0.112,0.453-0.223,0.918-0.329,1.396c-0.107,0.477-0.235,1.026-0.385,1.646
				L156.243,358.305z M159.105,349.969c0.802-0.121,1.544-0.478,2.225-1.068c0.348-0.302,0.6-0.636,0.75-1
				c0.15-0.363,0.227-0.787,0.227-1.271c0-0.063,0-0.122,0-0.184c0-0.061-0.015-0.128-0.046-0.203c0-0.167-0.076-0.25-0.227-0.25
				c-0.106,0-0.231,0.059-0.376,0.17c-0.143,0.113-0.291,0.251-0.443,0.409c-0.152,0.159-0.293,0.323-0.431,0.489
				c-0.135,0.166-0.249,0.303-0.34,0.409c-0.06,0.092-0.156,0.252-0.283,0.486c-0.129,0.237-0.263,0.485-0.398,0.751
				c-0.137,0.265-0.269,0.519-0.398,0.762C159.237,349.711,159.149,349.878,159.105,349.969z"/>
		</g>
		<g>
			<g>
				<path fill="#CA3600" d="M104.357,325.027v-11.291l-4.546-4.232l-6.619,4.63c-0.208,0.28-0.332,0.501-0.367,0.66
					c-0.035,0.16-0.052,0.352-0.052,0.575v8.421c0.098,0.475,0.212,0.909,0.346,1.3c0.132,0.391,0.332,0.771,0.598,1.142
					c0.265,0.37,0.627,0.739,1.088,1.11c0.462,0.37,1.083,0.771,1.865,1.204l3.435-1.718v0.042c0,0.098,0.058,0.312,0.179,0.64
					c0.119,0.329,0.244,0.701,0.377,1.121c0.133,0.418,0.258,0.852,0.377,1.299c0.12,0.446,0.179,0.829,0.179,1.152
					c0,0.068-0.004,0.132-0.011,0.188c-0.007,0.055-0.03,0.104-0.072,0.146c-0.07,0.126-0.181,0.234-0.335,0.326
					c-0.154,0.092-0.331,0.163-0.534,0.219c-0.203,0.058-0.42,0.096-0.649,0.115c-0.231,0.022-0.451,0.031-0.661,0.031h-0.606
					c-0.252,0-0.506-0.007-0.765-0.021c-0.258-0.015-0.489-0.057-0.691-0.126s-0.366-0.182-0.492-0.333
					c-0.126-0.155-0.19-0.379-0.19-0.671c0-0.239,0.004-0.45,0.011-0.64c0.007-0.189,0.046-0.353,0.114-0.493l-3.644-2.137
					c-0.127,0.126-0.239,0.294-0.336,0.504c-0.098,0.209-0.175,0.429-0.23,0.66c-0.055,0.23-0.097,0.454-0.126,0.671
					c-0.029,0.215-0.042,0.408-0.042,0.574c0,0.838,0.216,1.531,0.647,2.073c0.434,0.545,0.976,0.976,1.623,1.289
					c0.65,0.314,1.361,0.534,2.137,0.659c0.776,0.126,1.505,0.188,2.189,0.188c0.811,0,1.596-0.114,2.356-0.345
					c0.76-0.23,1.436-0.583,2.022-1.058s1.058-1.054,1.414-1.738c0.354-0.686,0.534-1.46,0.534-2.326
					c0-0.587-0.038-1.173-0.115-1.759C104.688,326.492,104.553,325.809,104.357,325.027z M100.105,323.436
					c0,0.068-0.071,0.166-0.211,0.291c-0.139,0.126-0.3,0.251-0.481,0.379c-0.181,0.126-0.363,0.234-0.546,0.324
					c-0.181,0.091-0.313,0.136-0.398,0.136c-0.153-0.042-0.313-0.11-0.481-0.209c-0.167-0.099-0.329-0.216-0.483-0.356
					c-0.152-0.14-0.279-0.289-0.375-0.449c-0.099-0.16-0.148-0.326-0.148-0.493v-7.771c0-0.14,0.052-0.276,0.156-0.409
					c0.105-0.132,0.239-0.255,0.398-0.366c0.161-0.112,0.326-0.217,0.494-0.314c0.167-0.099,0.313-0.188,0.439-0.272
					c0.083,0.084,0.217,0.193,0.398,0.325c0.181,0.133,0.362,0.275,0.544,0.43c0.181,0.152,0.344,0.313,0.483,0.479
					c0.14,0.168,0.208,0.329,0.208,0.482v7.794H100.105z"/>
				<path fill="#CA3600" d="M106.765,308.657c0.28,0.175,0.566,0.314,0.859,0.419c0.293,0.105,0.579,0.157,0.858,0.157
					c0.294,0,0.61-0.06,0.952-0.179c0.343-0.118,0.667-0.283,0.975-0.492c0.308-0.21,0.561-0.457,0.765-0.743
					c0.201-0.286,0.303-0.598,0.303-0.932c-0.307,0-0.632-0.069-0.975-0.209c-0.343-0.141-0.664-0.308-0.964-0.503
					c-0.3-0.197-0.557-0.402-0.775-0.619c-0.217-0.215-0.359-0.4-0.429-0.556c-0.376,0.447-0.796,0.831-1.256,1.152
					s-0.929,0.636-1.404,0.943l-0.208,0.125c0.125,0.294,0.302,0.563,0.534,0.807C106.23,308.273,106.486,308.484,106.765,308.657z"
					/>
				<path fill="#CA3600" d="M149.34,308.657c0.272,0.175,0.563,0.314,0.869,0.419c0.306,0.105,0.607,0.157,0.9,0.157
					c0.267,0,0.569-0.06,0.913-0.179c0.343-0.118,0.667-0.283,0.973-0.492c0.308-0.21,0.566-0.457,0.775-0.743
					c0.21-0.286,0.314-0.598,0.314-0.932c-0.321,0-0.648-0.069-0.983-0.209c-0.334-0.141-0.649-0.308-0.944-0.503
					c-0.293-0.197-0.552-0.402-0.775-0.619c-0.223-0.215-0.371-0.4-0.439-0.556c-0.447,0.489-0.909,0.895-1.382,1.216
					c-0.475,0.321-0.97,0.655-1.487,1.005c0.125,0.294,0.299,0.563,0.522,0.807C148.818,308.273,149.067,308.484,149.34,308.657z"/>
				<path fill="#CA3600" d="M111.07,325.341c-0.119-0.154-0.217-0.308-0.294-0.462c-0.077-0.153-0.115-0.308-0.115-0.46v-11.708
					c0-0.141-0.063-0.322-0.189-0.545c-0.125-0.225-0.285-0.447-0.481-0.672c-0.196-0.223-0.417-0.427-0.66-0.616
					c-0.244-0.188-0.485-0.318-0.723-0.388l-2.743,1.886c0.251,0.237,0.42,0.511,0.502,0.816c0.083,0.308,0.126,0.622,0.126,0.944
					v11.792c0,0.419,0.091,0.778,0.272,1.08c0.181,0.3,0.416,0.556,0.702,0.765s0.597,0.378,0.932,0.503
					c0.336,0.125,0.663,0.216,0.985,0.272l2.345-2.367c-0.083-0.125-0.186-0.258-0.303-0.397
					C111.308,325.644,111.189,325.495,111.07,325.341z"/>
				<path fill="#CA3600" d="M90.96,325.541c-0.146-0.176-0.269-0.361-0.365-0.556c-0.099-0.196-0.148-0.384-0.148-0.564v-10.286
					c0-0.125-0.052-0.303-0.156-0.533c-0.105-0.231-0.227-0.462-0.367-0.691c-0.14-0.229-0.284-0.443-0.429-0.641
					c-0.148-0.194-0.255-0.32-0.325-0.377c-0.306-0.517-0.716-0.958-1.225-1.329c-0.51-0.37-1.045-0.557-1.602-0.557
					c-0.279,0-0.542,0.042-0.787,0.125c-0.245,0.086-0.61,0.245-1.099,0.482c-2.025,0.949-3.492,2.266-4.398,3.948
					c-0.908,1.684-1.362,3.641-1.362,5.876c0,0.754,0.053,1.542,0.157,2.367c0.105,0.824,0.304,1.614,0.597,2.367
					c0.293,0.754,0.695,1.432,1.204,2.031c0.51,0.601,1.177,1.047,2,1.342c0.35-0.084,0.667-0.217,0.953-0.397
					c0.287-0.183,0.56-0.365,0.818-0.546c0.258-0.182,0.516-0.342,0.775-0.481c0.258-0.14,0.534-0.21,0.827-0.21
					c0.111,0.112,0.272,0.263,0.483,0.451c0.209,0.188,0.446,0.381,0.71,0.576c0.267,0.195,0.538,0.384,0.818,0.565
					c0.279,0.182,0.545,0.321,0.797,0.419l2.995-2.64c-0.126-0.056-0.266-0.151-0.419-0.283
					C91.26,325.867,91.107,325.715,90.96,325.541z M86.029,319.539v3.771c-0.168,0.307-0.343,0.537-0.525,0.689
					c-0.181,0.155-0.487,0.266-0.921,0.335c-0.754-0.446-1.323-0.999-1.708-1.654c-0.383-0.656-0.575-1.333-0.575-2.032v-1.487
					c0-0.167,0.009-0.422,0.031-0.765c0.021-0.341,0.058-0.727,0.114-1.152c0.055-0.425,0.133-0.858,0.23-1.298
					c0.099-0.441,0.226-0.845,0.388-1.216c0.159-0.37,0.353-0.67,0.576-0.901c0.223-0.229,0.496-0.345,0.817-0.345
					c0.362,0.306,0.648,0.59,0.858,0.848c0.209,0.259,0.367,0.521,0.471,0.785c0.104,0.267,0.172,0.538,0.2,0.817
					c0.027,0.279,0.042,0.594,0.042,0.942v2.663H86.029z"/>
				<path fill="#CA3600" d="M77.743,329.404c-0.202-0.251-0.379-0.523-0.534-0.816c-0.154-0.294-0.23-0.595-0.23-0.902v-15.919
					c0-0.516-0.012-1.058-0.032-1.622c-0.021-0.565-0.079-1.133-0.177-1.698c-0.099-0.564-0.246-1.11-0.442-1.632
					c-0.195-0.524-0.46-1.003-0.796-1.437c-0.223-0.224-0.453-0.44-0.69-0.648c-0.239-0.209-0.489-0.397-0.754-0.565
					s-0.549-0.299-0.848-0.398c-0.3-0.098-0.624-0.146-0.974-0.146l-5.615,3.603c-0.195,0-0.429-0.164-0.701-0.492
					c-0.272-0.329-0.603-0.702-0.995-1.121c-0.392-0.42-0.855-0.816-1.393-1.193s-1.17-0.615-1.895-0.713l-5.74,3.918
					c-0.083-0.098-0.227-0.292-0.429-0.586s-0.45-0.634-0.744-1.016c-0.293-0.385-0.633-0.79-1.017-1.216s-0.813-0.821-1.288-1.184
					l-4.169,3.603c0.154,0.224,0.338,0.443,0.554,0.66c0.217,0.217,0.423,0.439,0.619,0.671c0.196,0.23,0.364,0.481,0.503,0.754
					c0.139,0.272,0.209,0.583,0.209,0.932v0.545v19.396c0,0.378,0.098,0.776,0.294,1.193c0.196,0.42,0.454,0.804,0.775,1.152
					c0.321,0.35,0.685,0.641,1.09,0.87c0.404,0.23,0.817,0.345,1.235,0.345l4.126-3.562c-0.083-0.083-0.216-0.212-0.398-0.387
					c-0.181-0.174-0.363-0.362-0.545-0.564c-0.181-0.203-0.341-0.405-0.481-0.608c-0.14-0.201-0.209-0.379-0.209-0.534v-17.092
					l3.268-2.136c0.475,0,0.827,0.144,1.056,0.429c0.231,0.286,0.348,0.645,0.348,1.079v19.814c0,0.406,0.118,0.809,0.354,1.206
					c0.237,0.398,0.538,0.764,0.9,1.098c0.363,0.336,0.765,0.626,1.205,0.87c0.441,0.244,0.863,0.415,1.268,0.512l3.791-3.687
					c-0.083-0.057-0.221-0.159-0.408-0.314c-0.188-0.153-0.379-0.331-0.575-0.534c-0.197-0.201-0.368-0.411-0.515-0.628
					c-0.146-0.217-0.219-0.422-0.219-0.618v-17.092l3.246-2.137c0.237,0,0.439,0.063,0.606,0.189c0.167,0.125,0.308,0.278,0.42,0.46
					c0.111,0.182,0.191,0.375,0.24,0.577c0.048,0.202,0.074,0.379,0.074,0.533v19.564c0.098,0.573,0.297,1.073,0.597,1.498
					c0.3,0.426,0.64,0.793,1.017,1.099c0.375,0.308,0.76,0.553,1.151,0.733c0.392,0.183,0.726,0.3,1.005,0.356l3.896-3.393
					c-0.098-0.099-0.244-0.238-0.439-0.42C78.145,329.872,77.945,329.655,77.743,329.404z"/>
				<path fill="#CA3600" d="M166.977,325.185c-0.273-0.328-0.409-0.751-0.409-1.267v-9.008c0-1.047-0.185-1.958-0.556-2.732
					s-1.03-1.421-1.979-1.938c-0.125,0.069-0.286,0.154-0.481,0.25c-0.196,0.098-0.471,0.231-0.827,0.398
					c-0.356,0.167-0.811,0.37-1.361,0.607c-0.551,0.236-1.254,0.531-2.106,0.88c-0.125-0.126-0.229-0.29-0.313-0.492
					c-0.084-0.203-0.199-0.423-0.345-0.66c-0.147-0.237-0.356-0.475-0.629-0.712c-0.273-0.238-0.667-0.447-1.183-0.629l-2.807,2.367
					c0.378,0.252,0.673,0.512,0.89,0.776s0.381,0.549,0.492,0.848c0.112,0.3,0.183,0.632,0.21,0.996
					c0.027,0.362,0.042,0.774,0.042,1.235v8.231c0,0.308,0.05,0.692,0.146,1.152c0.098,0.461,0.252,0.907,0.462,1.341
					c0.208,0.433,0.477,0.807,0.807,1.121c0.329,0.314,0.731,0.471,1.205,0.471l2.534-2.493c-0.098-0.167-0.211-0.32-0.345-0.461
					c-0.134-0.14-0.259-0.289-0.379-0.45c-0.119-0.16-0.218-0.328-0.302-0.503c-0.084-0.174-0.126-0.375-0.126-0.599v-8.88
					c0.322-0.266,0.672-0.454,1.047-0.565c0.378-0.111,0.823-0.252,1.341-0.42c0.056,0,0.157,0.039,0.303,0.115
					c0.147,0.077,0.221,0.255,0.221,0.534v9.991c0,0.377,0.066,0.781,0.199,1.215s0.326,0.836,0.577,1.205
					c0.249,0.371,0.551,0.682,0.901,0.932c0.348,0.251,0.746,0.378,1.194,0.378l2.409-2.367
					C167.525,325.802,167.249,325.513,166.977,325.185z"/>
				<path fill="#CA3600" d="M205.928,313.736c-0.405-0.838-0.957-1.589-1.655-2.251c-0.698-0.664-1.585-1.198-2.66-1.604
					c-1.159,0.25-2.195,0.719-3.11,1.402c-0.915,0.686-1.689,1.505-2.325,2.463c-0.636,0.956-1.121,1.993-1.456,3.11
					c-0.336,1.117-0.503,2.228-0.503,3.331c0,1.004,0.107,1.939,0.324,2.806s0.587,1.655,1.109,2.367
					c0.525,0.713,1.229,1.338,2.117,1.875c0.886,0.538,2.006,0.975,3.36,1.311c1.09-0.586,2.013-1.265,2.767-2.032
					c0.753-0.768,1.36-1.563,1.821-2.388c0.461-0.823,0.792-1.644,0.996-2.461c0.202-0.816,0.304-1.567,0.304-2.252
					c0-1.004-0.081-1.993-0.242-2.963C206.614,315.48,206.333,314.574,205.928,313.736z M203.445,320.198
					c-0.034,0.511-0.125,1.069-0.272,1.677c-0.146,0.605-0.37,1.201-0.67,1.78s-0.716,1.036-1.246,1.372
					c-0.852-0.489-1.522-1.003-2.01-1.54c-0.49-0.537-0.861-1.079-1.111-1.623c-0.252-0.545-0.408-1.079-0.472-1.603
					c-0.063-0.522-0.094-1.023-0.094-1.497c0-0.63,0.07-1.229,0.21-1.802c0.14-0.572,0.335-1.106,0.586-1.602
					s0.547-0.934,0.89-1.311s0.71-0.677,1.1-0.899c0.754,0.404,1.342,0.848,1.76,1.329c0.419,0.482,0.733,0.98,0.942,1.497
					c0.21,0.517,0.334,1.045,0.378,1.582c0.042,0.538,0.063,1.071,0.063,1.603C203.499,319.343,203.48,319.689,203.445,320.198z"/>
				<path fill="#CA3600" d="M192.899,324.817v-15.104v-3.852c0-0.307-0.063-0.639-0.188-0.995c-0.126-0.356-0.297-0.685-0.514-0.984
					c-0.216-0.301-0.475-0.551-0.776-0.744c-0.299-0.196-0.625-0.294-0.973-0.294c-0.266,0-0.533,0.063-0.807,0.189
					c-0.272,0.125-0.535,0.29-0.785,0.493s-0.482,0.422-0.689,0.659c-0.211,0.237-0.393,0.467-0.548,0.689
					c0.293,0.294,0.521,0.56,0.683,0.797s0.283,0.479,0.367,0.725c0.083,0.243,0.136,0.493,0.158,0.752
					c0.021,0.259,0.029,0.557,0.029,0.892v1.673v1.552c-0.294-0.195-0.615-0.333-0.963-0.408c-0.35-0.076-0.686-0.157-1.006-0.242
					c-0.446,0.083-0.826,0.188-1.142,0.313c-0.314,0.126-0.59,0.323-0.825,0.588c-0.671,0.629-1.244,1.257-1.718,1.886
					c-0.475,0.628-0.87,1.281-1.184,1.959c-0.314,0.678-0.545,1.397-0.691,2.157c-0.147,0.761-0.221,1.587-0.221,2.48
					c0,0.391,0.046,0.877,0.138,1.457c0.091,0.579,0.228,1.182,0.409,1.812c0.182,0.628,0.404,1.256,0.67,1.885
					c0.266,0.63,0.572,1.193,0.922,1.696c0.348,0.505,0.743,0.912,1.183,1.227c0.439,0.313,0.918,0.471,1.436,0.471h0.397
					l2.869-1.845c0.099,0.168,0.244,0.356,0.44,0.565c0.195,0.209,0.412,0.409,0.647,0.598c0.238,0.19,0.485,0.35,0.744,0.481
					c0.257,0.133,0.493,0.2,0.701,0.2h0.252c0.111-0.155,0.262-0.332,0.45-0.534s0.386-0.409,0.599-0.618
					c0.207-0.209,0.406-0.413,0.596-0.607c0.188-0.195,0.34-0.363,0.45-0.503L192.899,324.817z M188.856,323.436
					c-0.027,0.125-0.084,0.243-0.167,0.354c-0.083,0.112-0.189,0.217-0.314,0.315c-0.125,0.098-0.254,0.175-0.388,0.229
					c-0.134,0.057-0.254,0.085-0.366,0.085c-0.656-0.252-1.163-0.595-1.52-1.027s-0.614-0.918-0.774-1.455
					c-0.162-0.538-0.255-1.109-0.285-1.718c-0.025-0.606-0.04-1.205-0.04-1.791c0-0.168,0.015-0.401,0.04-0.701
					c0.029-0.3,0.073-0.626,0.137-0.976c0.064-0.348,0.144-0.699,0.242-1.056c0.098-0.356,0.21-0.683,0.334-0.975
					c0.126-0.294,0.274-0.53,0.439-0.712c0.169-0.182,0.356-0.273,0.567-0.273c0.123,0,0.305,0.07,0.543,0.21
					c0.239,0.14,0.47,0.312,0.702,0.513c0.229,0.201,0.429,0.412,0.598,0.629c0.168,0.217,0.251,0.4,0.251,0.555L188.856,323.436
					L188.856,323.436z"/>
				<path fill="#CA3600" d="M227.377,325.792c-0.169-0.133-0.325-0.272-0.472-0.42s-0.269-0.305-0.365-0.471
					c-0.099-0.168-0.148-0.356-0.148-0.566v-10.074c-0.083-0.377-0.186-0.777-0.305-1.204c-0.118-0.427-0.281-0.821-0.491-1.185
					c-0.208-0.363-0.481-0.663-0.817-0.9c-0.337-0.237-0.755-0.356-1.257-0.356c-0.754,0.237-1.463,0.563-2.127,0.975
					c-0.663,0.413-1.352,0.827-2.063,1.245c-0.084-0.124-0.219-0.299-0.409-0.521c-0.188-0.225-0.399-0.455-0.639-0.691
					c-0.238-0.238-0.495-0.461-0.775-0.67c-0.279-0.21-0.558-0.364-0.838-0.462c-0.348,0.098-0.715,0.251-1.1,0.462
					c-0.384,0.209-0.764,0.428-1.14,0.659c-0.378,0.231-0.733,0.45-1.069,0.658c-0.334,0.21-0.621,0.356-0.858,0.441
					c-0.084-0.139-0.186-0.308-0.304-0.504c-0.119-0.195-0.27-0.39-0.45-0.586c-0.182-0.197-0.402-0.391-0.661-0.587
					c-0.258-0.196-0.563-0.378-0.91-0.546l-2.346,1.887c0.208,0.308,0.365,0.621,0.471,0.942c0.104,0.321,0.155,0.678,0.155,1.068
					v10.893c0,0.321,0.081,0.674,0.242,1.059c0.16,0.383,0.378,0.739,0.648,1.067c0.271,0.329,0.583,0.602,0.933,0.816
					c0.349,0.217,0.719,0.326,1.11,0.326l2.345-2.366c-0.125-0.1-0.262-0.21-0.408-0.336c-0.148-0.126-0.279-0.266-0.398-0.419
					c-0.117-0.155-0.221-0.322-0.304-0.504c-0.082-0.182-0.124-0.377-0.124-0.587v-8.692c0.153-0.125,0.324-0.269,0.512-0.428
					c0.188-0.16,0.383-0.314,0.585-0.462c0.204-0.146,0.402-0.28,0.6-0.397c0.196-0.119,0.371-0.193,0.523-0.22
					c0.223,0,0.386,0.038,0.492,0.114c0.106,0.077,0.241,0.227,0.409,0.45v10.726c0,0.209,0.083,0.493,0.25,0.849
					c0.168,0.355,0.385,0.7,0.649,1.036c0.265,0.335,0.553,0.626,0.858,0.87c0.308,0.243,0.608,0.366,0.901,0.366l2.493-2.366
					c-0.251-0.253-0.507-0.521-0.765-0.808s-0.388-0.633-0.388-1.038v-8.692c0.167-0.125,0.35-0.243,0.545-0.355
					c0.196-0.111,0.387-0.228,0.575-0.346c0.189-0.118,0.364-0.234,0.524-0.346c0.159-0.111,0.297-0.223,0.409-0.334
					c0.182,0.125,0.334,0.255,0.46,0.388c0.128,0.132,0.246,0.261,0.356,0.387v8.882c0,0.377,0.046,0.83,0.136,1.36
					c0.092,0.53,0.248,1.038,0.473,1.52c0.224,0.481,0.518,0.894,0.89,1.234c0.369,0.343,0.842,0.514,1.415,0.514l2.408-2.367
					C227.69,326.053,227.544,325.924,227.377,325.792z"/>
				<path fill="#CA3600" d="M115.699,316.198c0.077-0.511,0.199-1.01,0.368-1.498c0.167-0.488,0.411-0.894,0.732-1.215h0.084
					c0.195,0,0.418,0.048,0.67,0.146c0.251,0.1,0.411,0.197,0.482,0.294c0.321,0.168,0.606,0.377,0.858,0.628
					c0.25,0.251,0.511,0.412,0.775,0.482l2.135-2.786c0-0.027-0.108-0.143-0.325-0.345c-0.217-0.202-0.465-0.422-0.744-0.66
					c-0.279-0.238-0.558-0.458-0.838-0.66c-0.279-0.201-0.481-0.316-0.606-0.345c-0.042-0.028-0.123-0.077-0.241-0.146
					c-0.119-0.07-0.248-0.145-0.388-0.222c-0.14-0.074-0.273-0.142-0.398-0.198c-0.126-0.057-0.202-0.084-0.231-0.084
					c-0.279,0-0.533,0.063-0.765,0.188c-0.23,0.125-0.429,0.28-0.596,0.462c-1.467,1.299-2.57,2.732-3.311,4.305
					c-0.739,1.571-1.11,3.348-1.11,5.33c0,0.698,0.04,1.4,0.115,2.105c0.077,0.706,0.221,1.387,0.429,2.043
					c0.21,0.656,0.503,1.27,0.881,1.843c0.377,0.574,0.858,1.068,1.445,1.489c0.573,0.291,1.132,0.551,1.676,0.774
					c0.545,0.224,1.173,0.363,1.884,0.42c0.084,0,0.255-0.171,0.514-0.514c0.258-0.341,0.533-0.726,0.827-1.15
					c0.294-0.426,0.563-0.823,0.807-1.195c0.245-0.37,0.402-0.59,0.472-0.658c-0.14,0-0.384-0.024-0.732-0.073
					c-0.35-0.049-0.737-0.146-1.163-0.294c-0.426-0.146-0.854-0.348-1.288-0.605c-0.434-0.259-0.804-0.592-1.11-0.996
					c-0.209-0.225-0.404-0.47-0.588-0.743c-0.181-0.271-0.339-0.579-0.471-0.922c-0.133-0.342-0.233-0.73-0.304-1.162
					c-0.069-0.433-0.104-0.923-0.104-1.466c0-0.28,0.006-0.65,0.021-1.111C115.577,317.193,115.623,316.708,115.699,316.198z"/>
				<path fill="#CA3600" d="M146.523,326.911c0-0.586-0.02-1.207-0.054-1.863c-0.035-0.656-0.101-1.295-0.199-1.917
					c-0.099-0.621-0.223-1.19-0.378-1.708c-0.154-0.517-0.356-0.928-0.606-1.234c-0.126-0.126-0.269-0.272-0.431-0.44
					c-0.161-0.167-0.334-0.335-0.524-0.503c-0.188-0.168-0.373-0.325-0.554-0.471c-0.181-0.146-0.356-0.263-0.524-0.346
					l-2.263-1.173c-0.055,0-0.084-0.058-0.084-0.168c0-0.126,0.028-0.271,0.084-0.439c0.058-0.168,0.099-0.252,0.126-0.252
					l3.771-4.021c0.252-0.251,0.466-0.562,0.648-0.933c0.181-0.371,0.325-0.765,0.429-1.184c0.104-0.417,0.181-0.837,0.231-1.256
					c0.048-0.421,0.073-0.796,0.073-1.132c0-0.041-0.019-0.16-0.052-0.355c-0.036-0.197-0.085-0.434-0.148-0.713
					c-0.063-0.28-0.141-0.579-0.23-0.901c-0.092-0.321-0.199-0.625-0.325-0.91c-0.125-0.287-0.263-0.534-0.41-0.744
					c-0.146-0.209-0.302-0.349-0.47-0.42l-4.293,2.744l0.042,0.147c0.085,0.238,0.192,0.587,0.325,1.047
					c0.133,0.462,0.2,0.949,0.2,1.467v0.899c-0.169,0.644-0.398,1.22-0.692,1.729c-0.294,0.511-0.633,0.981-1.017,1.414
					c-0.385,0.432-0.799,0.848-1.246,1.245c-0.448,0.398-0.894,0.814-1.342,1.246h-0.208c-0.068,0-0.154-0.003-0.252-0.009
					c-0.097-0.008-0.146-0.046-0.146-0.116v-7.771c0-0.32-0.114-0.694-0.346-1.12c-0.23-0.426-0.533-0.847-0.911-1.258
					c-0.378-0.411-0.796-0.789-1.256-1.133c-0.461-0.34-0.923-0.59-1.383-0.742l-3.644,3.268v0.082
					c0.125,0.168,0.275,0.354,0.45,0.557c0.175,0.202,0.345,0.42,0.513,0.649c0.167,0.231,0.313,0.464,0.439,0.701
					c0.125,0.236,0.202,0.475,0.23,0.712v2.66v17.574c0,0.28,0.094,0.622,0.283,1.028c0.188,0.404,0.433,0.806,0.733,1.204
					c0.3,0.397,0.646,0.754,1.037,1.068c0.391,0.313,0.789,0.52,1.194,0.617l4.377-3.267c-0.153-0.099-0.332-0.231-0.533-0.398
					c-0.202-0.168-0.392-0.356-0.565-0.565c-0.175-0.209-0.322-0.436-0.441-0.681c-0.119-0.243-0.178-0.492-0.178-0.744v-6.409
					c0-0.069,0.028-0.134,0.084-0.188c0.055-0.057,0.119-0.119,0.188-0.188c0.084-0.085,0.201-0.207,0.355-0.368
					c0.154-0.16,0.307-0.317,0.46-0.471c0.154-0.154,0.29-0.29,0.408-0.407c0.119-0.119,0.193-0.18,0.221-0.18h0.775l1.256,1.3
					c0.07,0.068,0.108,0.132,0.116,0.188c0.006,0.056,0.01,0.118,0.01,0.188c0.097,0.126,0.181,0.3,0.251,0.523
					c0.069,0.224,0.129,0.444,0.177,0.66c0.05,0.216,0.102,0.491,0.158,0.827v6.535c0,0.363,0.122,0.736,0.367,1.121
					c0.244,0.383,0.544,0.747,0.9,1.089c0.356,0.343,0.744,0.644,1.163,0.902c0.419,0.257,0.796,0.436,1.131,0.533l4.251-3.561
					c-0.557-0.559-0.974-1.096-1.246-1.614C146.763,328.05,146.592,327.498,146.523,326.911z"/>
				<path fill="#CA3600" d="M153.613,325.341c-0.119-0.154-0.221-0.308-0.304-0.462c-0.083-0.153-0.125-0.308-0.125-0.46v-11.708
					c0-0.141-0.063-0.322-0.189-0.545c-0.125-0.225-0.286-0.447-0.481-0.672c-0.196-0.223-0.404-0.427-0.628-0.616
					c-0.224-0.188-0.441-0.318-0.649-0.388l-2.786,1.886c0.238,0.237,0.398,0.511,0.481,0.816c0.083,0.308,0.125,0.622,0.125,0.944
					v11.792c0,0.419,0.092,0.778,0.273,1.08c0.182,0.301,0.416,0.556,0.702,0.765c0.285,0.209,0.597,0.378,0.931,0.503
					c0.335,0.125,0.656,0.216,0.964,0.272l2.451-2.367c-0.113-0.125-0.238-0.258-0.377-0.397
					C153.861,325.644,153.73,325.495,153.613,325.341z"/>
				<path fill="#CA3600" d="M180.08,325.027v-11.291l-4.505-4.232l-6.66,4.63c-0.197,0.28-0.309,0.496-0.335,0.648
					c-0.027,0.154-0.042,0.35-0.042,0.587v8.421c0.098,0.475,0.208,0.909,0.335,1.3c0.124,0.391,0.321,0.771,0.586,1.142
					c0.267,0.368,0.632,0.739,1.1,1.11c0.466,0.37,1.093,0.771,1.875,1.204l3.394-1.718c-0.029,0.028,0.017,0.199,0.136,0.514
					c0.118,0.313,0.247,0.689,0.387,1.131c0.14,0.44,0.273,0.897,0.398,1.371c0.125,0.476,0.188,0.888,0.188,1.237
					c0,0.068-0.003,0.132-0.012,0.188c-0.006,0.055-0.043,0.104-0.114,0.146c-0.068,0.126-0.174,0.235-0.313,0.326
					c-0.14,0.092-0.308,0.163-0.503,0.219c-0.197,0.058-0.409,0.096-0.64,0.115c-0.23,0.022-0.458,0.031-0.681,0.031h-0.649
					c-0.239,0-0.479-0.007-0.724-0.021c-0.245-0.015-0.468-0.057-0.671-0.126c-0.201-0.069-0.37-0.182-0.503-0.334
					c-0.131-0.154-0.198-0.378-0.198-0.671c0-0.237,0.002-0.449,0.011-0.64c0.006-0.188,0.046-0.352,0.114-0.492l-3.644-2.137
					c-0.126,0.126-0.235,0.294-0.325,0.504c-0.092,0.209-0.171,0.429-0.242,0.66c-0.069,0.23-0.123,0.454-0.156,0.671
					c-0.036,0.215-0.052,0.408-0.052,0.575c0,0.837,0.217,1.529,0.648,2.072c0.432,0.545,0.981,0.976,1.644,1.289
					c0.664,0.314,1.388,0.534,2.168,0.659c0.782,0.126,1.523,0.188,2.221,0.188c0.81,0,1.595-0.114,2.356-0.345
					c0.761-0.23,1.427-0.583,2-1.058s1.033-1.054,1.383-1.738c0.349-0.686,0.523-1.46,0.523-2.326c0-0.587-0.041-1.173-0.126-1.759
					C180.373,326.492,180.247,325.809,180.08,325.027z M175.828,323.436c0,0.068-0.071,0.166-0.211,0.291
					c-0.139,0.126-0.3,0.251-0.48,0.379c-0.182,0.127-0.363,0.234-0.545,0.324c-0.181,0.091-0.313,0.136-0.398,0.136
					c-0.167-0.042-0.338-0.11-0.514-0.209c-0.175-0.099-0.334-0.216-0.481-0.356c-0.146-0.14-0.269-0.289-0.367-0.449
					c-0.098-0.16-0.146-0.326-0.146-0.493v-7.771c0-0.14,0.056-0.276,0.167-0.409c0.113-0.132,0.244-0.255,0.398-0.366
					c0.154-0.111,0.317-0.217,0.492-0.314c0.175-0.099,0.325-0.188,0.451-0.272c0.084,0.084,0.217,0.193,0.398,0.325
					c0.183,0.133,0.364,0.275,0.545,0.43c0.181,0.152,0.342,0.313,0.48,0.479c0.14,0.168,0.211,0.329,0.211,0.482V323.436z"/>
			</g>
			<g>
				<g>
					<path fill="#FF0000" stroke="#FDB827" stroke-width="1.0134" d="M106.836,304.694c0.279,0.175,0.565,0.314,0.858,0.419
						c0.294,0.105,0.579,0.157,0.858,0.157c0.294,0,0.612-0.06,0.952-0.179c0.344-0.118,0.667-0.283,0.975-0.492
						c0.309-0.21,0.563-0.458,0.765-0.743c0.202-0.286,0.304-0.598,0.304-0.933c-0.307,0-0.633-0.068-0.975-0.209
						c-0.341-0.14-0.664-0.307-0.963-0.503c-0.301-0.196-0.56-0.401-0.776-0.618c-0.215-0.215-0.358-0.4-0.428-0.555
						c-0.378,0.446-0.796,0.83-1.257,1.151c-0.46,0.321-0.928,0.636-1.402,0.943l-0.208,0.125c0.125,0.294,0.302,0.563,0.533,0.808
						C106.301,304.311,106.557,304.521,106.836,304.694z"/>
					<path fill="#FF0000" stroke="#FDB827" stroke-width="1.0134" d="M104.428,321.064v-11.291l-4.546-4.231l-6.619,4.63
						c-0.208,0.279-0.333,0.5-0.367,0.66c-0.036,0.16-0.052,0.353-0.052,0.575v8.422c0.098,0.474,0.212,0.908,0.346,1.299
						s0.333,0.771,0.597,1.141c0.265,0.37,0.628,0.74,1.088,1.11c0.461,0.371,1.083,0.771,1.865,1.204l3.437-1.717v0.042
						c0,0.098,0.058,0.312,0.178,0.64c0.119,0.329,0.244,0.701,0.377,1.12c0.133,0.42,0.258,0.853,0.377,1.3
						s0.178,0.829,0.178,1.152c0,0.068-0.005,0.132-0.011,0.188c-0.006,0.055-0.03,0.104-0.072,0.146
						c-0.07,0.126-0.181,0.234-0.334,0.325c-0.154,0.092-0.333,0.165-0.536,0.22c-0.201,0.058-0.419,0.095-0.648,0.116
						c-0.231,0.021-0.45,0.031-0.66,0.031h-0.607c-0.252,0-0.506-0.009-0.765-0.022c-0.259-0.015-0.489-0.056-0.692-0.126
						c-0.202-0.068-0.365-0.182-0.492-0.333c-0.125-0.155-0.188-0.379-0.188-0.671c0-0.239,0.002-0.45,0.008-0.64
						c0.006-0.188,0.046-0.354,0.116-0.493l-3.646-2.137c-0.125,0.126-0.237,0.294-0.335,0.504c-0.096,0.21-0.175,0.429-0.229,0.66
						c-0.056,0.23-0.099,0.453-0.127,0.67c-0.027,0.217-0.042,0.409-0.042,0.576c0,0.837,0.217,1.53,0.649,2.072
						c0.433,0.545,0.974,0.976,1.622,1.289c0.65,0.314,1.362,0.534,2.138,0.659c0.774,0.126,1.504,0.188,2.188,0.188
						c0.81,0,1.595-0.114,2.355-0.345c0.76-0.229,1.436-0.583,2.023-1.058c0.585-0.475,1.056-1.054,1.413-1.739
						c0.356-0.685,0.536-1.458,0.536-2.325c0-0.587-0.04-1.173-0.117-1.759C104.758,322.53,104.623,321.846,104.428,321.064z
						 M100.176,319.473c0,0.068-0.069,0.165-0.21,0.291c-0.14,0.126-0.3,0.252-0.481,0.379c-0.183,0.126-0.364,0.234-0.545,0.324
						c-0.181,0.091-0.313,0.136-0.398,0.136c-0.153-0.042-0.313-0.111-0.482-0.209c-0.168-0.099-0.328-0.217-0.481-0.356
						c-0.154-0.14-0.28-0.289-0.378-0.449c-0.099-0.161-0.147-0.326-0.147-0.492v-7.771c0-0.14,0.052-0.276,0.156-0.409
						c0.106-0.132,0.238-0.255,0.399-0.366c0.159-0.111,0.326-0.217,0.491-0.314c0.168-0.099,0.316-0.189,0.441-0.273
						c0.084,0.084,0.217,0.194,0.398,0.326c0.181,0.133,0.362,0.275,0.544,0.429c0.181,0.153,0.343,0.314,0.482,0.48
						c0.141,0.168,0.21,0.329,0.21,0.482v7.794H100.176z"/>
					<path fill="#FF0000" stroke="#FDB827" stroke-width="1.0134" d="M91.031,321.578c-0.146-0.176-0.268-0.36-0.366-0.557
						c-0.099-0.195-0.147-0.383-0.147-0.563v-10.286c0-0.125-0.052-0.303-0.157-0.533c-0.105-0.231-0.226-0.462-0.366-0.691
						s-0.283-0.443-0.43-0.641c-0.146-0.194-0.253-0.32-0.324-0.377c-0.307-0.517-0.717-0.958-1.225-1.329
						c-0.51-0.371-1.044-0.557-1.602-0.557c-0.279,0-0.542,0.042-0.786,0.125c-0.245,0.085-0.61,0.245-1.1,0.482
						c-2.025,0.949-3.49,2.266-4.399,3.948c-0.908,1.684-1.362,3.641-1.362,5.876c0,0.754,0.052,1.543,0.156,2.366
						c0.105,0.825,0.304,1.615,0.598,2.368c0.293,0.754,0.695,1.432,1.204,2.031c0.51,0.601,1.177,1.047,2,1.342
						c0.349-0.084,0.667-0.217,0.952-0.397c0.287-0.184,0.559-0.365,0.818-0.546c0.259-0.182,0.516-0.342,0.776-0.481
						c0.258-0.141,0.533-0.21,0.827-0.21c0.112,0.112,0.273,0.263,0.482,0.451c0.209,0.188,0.447,0.38,0.713,0.576
						c0.266,0.195,0.538,0.383,0.817,0.566c0.279,0.181,0.544,0.32,0.796,0.418l2.994-2.64c-0.125-0.056-0.265-0.15-0.418-0.283
						C91.329,321.906,91.179,321.752,91.031,321.578z M86.098,315.576v3.771c-0.167,0.307-0.34,0.537-0.524,0.689
						c-0.181,0.155-0.487,0.266-0.921,0.335c-0.754-0.446-1.324-0.999-1.708-1.654c-0.383-0.656-0.575-1.333-0.575-2.032v-1.487
						c0-0.167,0.008-0.422,0.03-0.765c0.022-0.342,0.06-0.727,0.116-1.152c0.054-0.425,0.131-0.858,0.229-1.298
						c0.099-0.44,0.227-0.845,0.387-1.217c0.162-0.369,0.354-0.669,0.577-0.9c0.225-0.23,0.496-0.346,0.818-0.346
						c0.363,0.307,0.649,0.591,0.858,0.849s0.366,0.521,0.47,0.785c0.105,0.267,0.173,0.537,0.2,0.817
						c0.028,0.279,0.042,0.594,0.042,0.942L86.098,315.576L86.098,315.576z"/>
					<path fill="#FF0000" stroke="#FDB827" stroke-width="1.0134" d="M77.813,325.441c-0.202-0.251-0.379-0.523-0.534-0.816
						c-0.152-0.294-0.229-0.595-0.229-0.902v-15.919c0-0.516-0.01-1.058-0.032-1.622c-0.022-0.565-0.08-1.133-0.178-1.698
						c-0.098-0.564-0.244-1.11-0.439-1.633c-0.196-0.523-0.46-1.002-0.796-1.436c-0.223-0.224-0.454-0.44-0.692-0.648
						c-0.237-0.209-0.488-0.397-0.754-0.565c-0.265-0.168-0.548-0.3-0.848-0.398c-0.3-0.098-0.623-0.146-0.973-0.146l-5.613,3.603
						c-0.197,0-0.432-0.164-0.702-0.492c-0.273-0.329-0.604-0.702-0.996-1.121c-0.39-0.419-0.855-0.817-1.394-1.193
						c-0.538-0.378-1.168-0.614-1.894-0.713L56,303.657c-0.084-0.099-0.227-0.294-0.43-0.586c-0.202-0.294-0.45-0.634-0.744-1.016
						c-0.293-0.385-0.631-0.79-1.017-1.216c-0.383-0.425-0.813-0.821-1.288-1.184l-4.168,3.603c0.153,0.224,0.339,0.443,0.555,0.66
						c0.217,0.217,0.422,0.439,0.619,0.671c0.193,0.23,0.362,0.481,0.502,0.754s0.208,0.583,0.208,0.932v0.545v19.396
						c0,0.378,0.098,0.776,0.293,1.193c0.196,0.419,0.453,0.804,0.775,1.152c0.321,0.35,0.686,0.64,1.089,0.87
						c0.404,0.229,0.817,0.344,1.236,0.344l4.127-3.561c-0.085-0.084-0.217-0.212-0.398-0.387c-0.182-0.174-0.363-0.363-0.546-0.564
						c-0.182-0.203-0.342-0.405-0.481-0.608c-0.14-0.201-0.21-0.379-0.21-0.534v-17.093l3.269-2.135
						c0.474,0,0.826,0.144,1.056,0.428c0.231,0.286,0.346,0.646,0.346,1.08v19.814c0,0.405,0.119,0.808,0.356,1.205
						c0.237,0.398,0.538,0.765,0.9,1.1c0.362,0.335,0.765,0.625,1.204,0.869s0.863,0.415,1.267,0.512l3.792-3.687
						c-0.084-0.057-0.221-0.159-0.408-0.314c-0.189-0.153-0.379-0.332-0.576-0.534c-0.197-0.2-0.368-0.411-0.514-0.628
						c-0.146-0.217-0.219-0.422-0.219-0.618v-17.092l3.246-2.138c0.238,0,0.44,0.063,0.606,0.19c0.168,0.125,0.307,0.278,0.419,0.46
						c0.112,0.182,0.193,0.375,0.242,0.577s0.073,0.379,0.073,0.533v19.564c0.098,0.573,0.296,1.072,0.597,1.498
						c0.299,0.426,0.638,0.792,1.017,1.099c0.378,0.308,0.76,0.553,1.151,0.733c0.392,0.182,0.728,0.301,1.006,0.356l3.896-3.393
						c-0.098-0.099-0.245-0.238-0.44-0.421C78.215,325.909,78.016,325.691,77.813,325.441z"/>
					<path fill="#FF0000" stroke="#FDB827" stroke-width="1.0134" d="M111.139,321.378c-0.118-0.153-0.217-0.308-0.293-0.461
						c-0.077-0.153-0.113-0.307-0.113-0.46v-11.711c0-0.14-0.064-0.321-0.19-0.545c-0.125-0.224-0.288-0.446-0.481-0.67
						c-0.196-0.224-0.417-0.429-0.661-0.617c-0.245-0.188-0.485-0.318-0.723-0.389l-2.744,1.887c0.251,0.237,0.419,0.51,0.502,0.816
						c0.083,0.308,0.127,0.622,0.127,0.943v11.793c0,0.419,0.09,0.778,0.271,1.08c0.181,0.3,0.416,0.555,0.702,0.765
						c0.287,0.209,0.597,0.378,0.934,0.502c0.334,0.126,0.662,0.217,0.983,0.273l2.346-2.367c-0.083-0.126-0.186-0.258-0.304-0.398
						C111.377,321.68,111.259,321.532,111.139,321.378z"/>
					<path fill="#FF0000" stroke="#FDB827" stroke-width="1.0134" d="M149.409,304.694c0.273,0.175,0.563,0.314,0.87,0.419
						c0.307,0.105,0.607,0.157,0.901,0.157c0.267,0,0.568-0.06,0.911-0.179c0.342-0.118,0.667-0.283,0.973-0.492
						c0.309-0.21,0.567-0.458,0.776-0.743c0.21-0.286,0.315-0.598,0.315-0.933c-0.322,0-0.65-0.068-0.985-0.209
						c-0.335-0.14-0.648-0.307-0.943-0.503c-0.294-0.196-0.553-0.401-0.776-0.618c-0.223-0.215-0.37-0.4-0.439-0.555
						c-0.446,0.488-0.909,0.894-1.384,1.214c-0.473,0.322-0.969,0.656-1.486,1.006c0.126,0.294,0.299,0.563,0.524,0.808
						C148.89,304.311,149.138,304.521,149.409,304.694z"/>
					<path fill="#FF0000" stroke="#FDB827" stroke-width="1.0134" d="M192.968,320.854V304.38v-2.481
						c0-0.308-0.063-0.639-0.189-0.995c-0.125-0.356-0.296-0.685-0.513-0.984c-0.216-0.3-0.474-0.55-0.774-0.744
						c-0.301-0.195-0.627-0.294-0.974-0.294c-0.267,0-0.535,0.063-0.806,0.189c-0.274,0.125-0.537,0.29-0.786,0.492
						c-0.252,0.202-0.483,0.423-0.691,0.66c-0.21,0.237-0.392,0.467-0.546,0.689c0.294,0.294,0.521,0.559,0.683,0.797
						c0.159,0.237,0.282,0.479,0.365,0.724c0.086,0.245,0.138,0.495,0.158,0.753c0.021,0.259,0.031,0.557,0.031,0.891v0.304v2.922
						c-0.294-0.195-0.614-0.332-0.963-0.409c-0.35-0.075-0.685-0.156-1.006-0.241c-0.445,0.083-0.827,0.188-1.142,0.313
						c-0.314,0.126-0.59,0.323-0.826,0.588c-0.671,0.629-1.243,1.256-1.718,1.886c-0.476,0.628-0.869,1.281-1.184,1.959
						s-0.544,1.397-0.689,2.158c-0.148,0.76-0.221,1.586-0.221,2.479c0,0.392,0.046,0.877,0.135,1.457
						c0.092,0.579,0.229,1.183,0.411,1.812c0.181,0.628,0.404,1.256,0.669,1.885c0.267,0.629,0.572,1.193,0.923,1.696
						c0.348,0.505,0.741,0.912,1.182,1.227c0.44,0.313,0.918,0.47,1.435,0.47h0.398l2.871-1.844
						c0.097,0.168,0.243,0.356,0.439,0.565c0.195,0.209,0.411,0.409,0.648,0.598c0.237,0.189,0.484,0.35,0.742,0.481
						c0.259,0.133,0.494,0.199,0.701,0.199h0.252c0.111-0.154,0.261-0.331,0.45-0.533c0.188-0.202,0.388-0.409,0.598-0.618
						c0.211-0.209,0.408-0.413,0.599-0.607c0.188-0.195,0.337-0.363,0.45-0.503L192.968,320.854z M188.926,319.473
						c-0.028,0.124-0.083,0.243-0.167,0.354c-0.085,0.112-0.189,0.216-0.314,0.315c-0.126,0.098-0.256,0.175-0.388,0.229
						c-0.133,0.057-0.254,0.085-0.366,0.085c-0.656-0.252-1.162-0.595-1.519-1.027s-0.615-0.918-0.776-1.455
						c-0.161-0.538-0.255-1.109-0.284-1.718c-0.026-0.606-0.041-1.205-0.041-1.791c0-0.168,0.015-0.401,0.041-0.701
						c0.029-0.301,0.073-0.626,0.138-0.976c0.063-0.349,0.143-0.7,0.241-1.057c0.098-0.356,0.21-0.682,0.335-0.974
						c0.123-0.293,0.272-0.531,0.438-0.712c0.169-0.182,0.356-0.273,0.566-0.273c0.125,0,0.307,0.07,0.544,0.21
						c0.238,0.14,0.471,0.312,0.702,0.514c0.229,0.2,0.429,0.411,0.597,0.628c0.168,0.216,0.251,0.4,0.251,0.555v7.793H188.926z"/>
					<path fill="#FF0000" stroke="#FDB827" stroke-width="1.0134" d="M180.15,321.064v-11.291l-4.504-4.231l-6.661,4.63
						c-0.196,0.279-0.307,0.496-0.335,0.648c-0.026,0.155-0.042,0.35-0.042,0.587v8.422c0.098,0.474,0.209,0.908,0.335,1.299
						c0.125,0.391,0.321,0.771,0.585,1.141c0.267,0.371,0.633,0.74,1.1,1.11c0.467,0.371,1.092,0.771,1.875,1.204l3.394-1.717
						c-0.027,0.027,0.019,0.199,0.136,0.513c0.119,0.314,0.248,0.69,0.388,1.133c0.14,0.439,0.272,0.896,0.398,1.37
						c0.125,0.475,0.189,0.888,0.189,1.237c0,0.068-0.005,0.131-0.013,0.188c-0.007,0.055-0.044,0.104-0.114,0.146
						c-0.069,0.126-0.176,0.234-0.315,0.325c-0.14,0.092-0.306,0.164-0.502,0.22c-0.195,0.058-0.408,0.095-0.64,0.115
						c-0.229,0.021-0.456,0.031-0.679,0.031h-0.65c-0.237,0-0.479-0.008-0.723-0.021c-0.245-0.015-0.468-0.057-0.671-0.126
						c-0.202-0.068-0.369-0.182-0.502-0.333c-0.133-0.155-0.199-0.379-0.199-0.671c0-0.239,0.002-0.45,0.009-0.64
						c0.008-0.188,0.045-0.354,0.114-0.493l-3.644-2.137c-0.126,0.126-0.235,0.294-0.325,0.503c-0.092,0.211-0.171,0.43-0.242,0.661
						c-0.069,0.231-0.123,0.454-0.156,0.67c-0.036,0.216-0.052,0.409-0.052,0.576c0,0.837,0.216,1.53,0.648,2.072
						c0.434,0.545,0.981,0.976,1.644,1.289c0.665,0.314,1.388,0.534,2.169,0.659c0.781,0.126,1.523,0.188,2.221,0.188
						c0.809,0,1.594-0.115,2.355-0.345c0.762-0.23,1.429-0.583,2.002-1.058s1.033-1.054,1.381-1.739
						c0.351-0.685,0.525-1.459,0.525-2.325c0-0.587-0.042-1.173-0.127-1.76C180.441,322.531,180.318,321.846,180.15,321.064z
						 M175.898,319.473c0,0.068-0.069,0.165-0.21,0.291c-0.14,0.126-0.299,0.252-0.48,0.379c-0.181,0.126-0.363,0.234-0.544,0.324
						c-0.184,0.091-0.315,0.136-0.398,0.136c-0.168-0.042-0.339-0.111-0.514-0.209c-0.174-0.099-0.334-0.217-0.48-0.356
						c-0.149-0.14-0.269-0.289-0.368-0.449c-0.098-0.161-0.147-0.326-0.147-0.492v-7.771c0-0.14,0.057-0.276,0.167-0.409
						c0.111-0.132,0.245-0.255,0.398-0.366c0.154-0.112,0.316-0.217,0.492-0.314c0.175-0.099,0.326-0.189,0.452-0.273
						c0.083,0.084,0.214,0.194,0.398,0.326c0.181,0.133,0.364,0.275,0.544,0.429c0.182,0.153,0.341,0.314,0.48,0.48
						c0.141,0.168,0.21,0.329,0.21,0.482V319.473z"/>
					<path fill="#FF0000" stroke="#FDB827" stroke-width="1.0134" stroke-miterlimit="10" d="M205.999,309.773
						c-0.406-0.837-0.957-1.588-1.656-2.25c-0.698-0.663-1.583-1.198-2.658-1.604c-1.161,0.252-2.198,0.72-3.113,1.403
						c-0.913,0.685-1.689,1.506-2.325,2.462c-0.635,0.957-1.119,1.994-1.454,3.11c-0.335,1.118-0.502,2.229-0.502,3.332
						c0,1.004,0.106,1.939,0.323,2.807c0.217,0.865,0.587,1.655,1.11,2.366c0.522,0.713,1.228,1.338,2.115,1.875
						c0.886,0.538,2.008,0.975,3.362,1.311c1.09-0.587,2.011-1.265,2.765-2.032s1.36-1.563,1.822-2.388
						c0.461-0.823,0.79-1.644,0.994-2.461s0.305-1.567,0.305-2.252c0-1.004-0.079-1.993-0.242-2.964
						C206.684,311.518,206.403,310.611,205.999,309.773z M203.515,316.235c-0.034,0.511-0.125,1.069-0.272,1.677
						c-0.146,0.606-0.369,1.2-0.669,1.779c-0.301,0.58-0.717,1.037-1.246,1.372c-0.853-0.489-1.523-1.001-2.013-1.539
						c-0.487-0.537-0.858-1.079-1.108-1.623c-0.252-0.545-0.41-1.079-0.473-1.603s-0.094-1.023-0.094-1.498
						c0-0.629,0.069-1.228,0.21-1.801c0.14-0.572,0.335-1.106,0.586-1.602s0.548-0.933,0.89-1.311c0.344-0.377,0.71-0.678,1.1-0.9
						c0.754,0.405,1.342,0.849,1.76,1.33c0.42,0.482,0.734,0.98,0.941,1.497c0.211,0.516,0.335,1.045,0.378,1.582
						c0.042,0.538,0.063,1.071,0.063,1.603C203.568,315.381,203.55,315.727,203.515,316.235z"/>
					<path fill="#FF0000" stroke="#FDB827" stroke-width="1.0134" d="M115.769,312.235c0.077-0.511,0.2-1.01,0.368-1.498
						s0.412-0.894,0.734-1.215h0.083c0.196,0,0.418,0.048,0.668,0.146c0.252,0.099,0.413,0.197,0.483,0.293
						c0.321,0.169,0.607,0.378,0.858,0.63c0.251,0.25,0.51,0.411,0.775,0.48l2.137-2.785c0-0.028-0.109-0.144-0.326-0.345
						c-0.216-0.203-0.462-0.422-0.743-0.66s-0.558-0.458-0.839-0.66c-0.279-0.201-0.481-0.317-0.606-0.346
						c-0.042-0.027-0.123-0.076-0.242-0.146c-0.119-0.071-0.248-0.144-0.387-0.221c-0.14-0.075-0.271-0.144-0.398-0.199
						c-0.125-0.058-0.202-0.083-0.229-0.083c-0.28,0-0.535,0.063-0.766,0.188c-0.23,0.125-0.428,0.278-0.597,0.46
						c-1.467,1.3-2.571,2.733-3.311,4.305c-0.74,1.572-1.111,3.35-1.111,5.33c0,0.699,0.039,1.401,0.115,2.106
						c0.077,0.706,0.221,1.387,0.429,2.043c0.209,0.656,0.502,1.27,0.88,1.843c0.378,0.574,0.859,1.068,1.445,1.489
						c0.573,0.292,1.131,0.551,1.675,0.774c0.543,0.224,1.173,0.363,1.885,0.42c0.083,0,0.254-0.171,0.513-0.514
						c0.257-0.341,0.533-0.726,0.827-1.15c0.294-0.426,0.561-0.823,0.805-1.195c0.245-0.37,0.402-0.59,0.472-0.659
						c-0.14,0-0.385-0.023-0.735-0.072c-0.349-0.049-0.736-0.147-1.162-0.294c-0.426-0.146-0.855-0.349-1.289-0.605
						c-0.433-0.259-0.802-0.592-1.11-0.996c-0.208-0.225-0.405-0.47-0.586-0.744c-0.182-0.271-0.34-0.579-0.472-0.921
						c-0.131-0.342-0.233-0.73-0.302-1.162c-0.07-0.433-0.105-0.922-0.105-1.466c0-0.28,0.006-0.65,0.022-1.111
						C115.644,313.234,115.692,312.745,115.769,312.235z"/>
					<path fill="#FF0000" stroke="#FDB827" stroke-width="1.0134" d="M227.449,321.829c-0.169-0.133-0.325-0.273-0.474-0.42
						c-0.146-0.147-0.267-0.305-0.364-0.472c-0.099-0.167-0.147-0.356-0.147-0.565v-10.074c-0.084-0.378-0.186-0.778-0.305-1.204
						c-0.119-0.427-0.281-0.822-0.491-1.185c-0.209-0.362-0.481-0.663-0.817-0.9c-0.335-0.237-0.754-0.356-1.256-0.356
						c-0.755,0.237-1.465,0.563-2.128,0.975c-0.662,0.413-1.35,0.826-2.063,1.246c-0.083-0.126-0.221-0.3-0.409-0.522
						c-0.189-0.225-0.402-0.455-0.639-0.691c-0.237-0.237-0.496-0.461-0.775-0.67c-0.281-0.21-0.56-0.364-0.839-0.462
						c-0.349,0.098-0.715,0.251-1.101,0.462c-0.382,0.209-0.763,0.428-1.14,0.659s-0.733,0.45-1.067,0.658
						c-0.335,0.21-0.622,0.356-0.859,0.442c-0.086-0.141-0.186-0.309-0.305-0.505c-0.117-0.195-0.269-0.391-0.45-0.586
						c-0.181-0.197-0.402-0.391-0.66-0.587c-0.258-0.197-0.562-0.378-0.91-0.546l-2.347,1.887c0.21,0.308,0.367,0.621,0.471,0.942
						c0.106,0.321,0.156,0.678,0.156,1.068v10.893c0,0.32,0.082,0.674,0.243,1.059c0.159,0.383,0.376,0.739,0.646,1.067
						c0.273,0.328,0.584,0.6,0.934,0.816c0.351,0.217,0.72,0.326,1.11,0.326l2.347-2.367c-0.125-0.099-0.263-0.209-0.41-0.335
						c-0.146-0.126-0.278-0.266-0.396-0.42c-0.119-0.154-0.221-0.321-0.304-0.503c-0.084-0.182-0.125-0.377-0.125-0.587v-8.692
						c0.152-0.125,0.323-0.269,0.512-0.428c0.188-0.16,0.384-0.315,0.586-0.462c0.203-0.146,0.402-0.28,0.598-0.397
						c0.197-0.119,0.371-0.192,0.523-0.221c0.225,0,0.388,0.039,0.491,0.115c0.106,0.077,0.243,0.227,0.411,0.45v10.725
						c0,0.21,0.083,0.494,0.25,0.849c0.168,0.356,0.384,0.702,0.649,1.037c0.265,0.334,0.553,0.626,0.858,0.869
						c0.309,0.244,0.607,0.367,0.902,0.367l2.492-2.367c-0.251-0.252-0.507-0.52-0.765-0.807c-0.259-0.287-0.387-0.633-0.387-1.038
						v-8.692c0.166-0.125,0.349-0.243,0.544-0.355c0.196-0.111,0.387-0.228,0.576-0.347c0.189-0.117,0.363-0.233,0.523-0.345
						s0.297-0.223,0.409-0.334c0.181,0.125,0.334,0.255,0.461,0.388c0.125,0.132,0.244,0.261,0.356,0.388v8.88
						c0,0.378,0.046,0.831,0.136,1.361c0.091,0.53,0.247,1.038,0.472,1.519c0.223,0.482,0.518,0.894,0.89,1.235
						c0.369,0.343,0.842,0.514,1.413,0.514l2.41-2.368C227.763,322.092,227.615,321.96,227.449,321.829z"/>
					<path fill="#FF0000" stroke="#FDB827" stroke-width="1.0134" d="M146.593,322.948c0-0.586-0.018-1.207-0.053-1.863
						c-0.034-0.656-0.1-1.295-0.198-1.917c-0.098-0.621-0.223-1.19-0.378-1.708c-0.155-0.517-0.356-0.929-0.607-1.235
						c-0.125-0.125-0.269-0.272-0.429-0.439c-0.161-0.167-0.335-0.335-0.524-0.504c-0.189-0.168-0.374-0.324-0.555-0.47
						c-0.182-0.147-0.356-0.263-0.523-0.346l-2.263-1.173c-0.056,0-0.084-0.058-0.084-0.168c0-0.126,0.028-0.271,0.084-0.439
						c0.056-0.168,0.097-0.252,0.125-0.252l3.771-4.021c0.251-0.251,0.468-0.562,0.649-0.933s0.326-0.765,0.428-1.184
						c0.104-0.417,0.181-0.837,0.231-1.256c0.049-0.421,0.073-0.796,0.073-1.132c0-0.041-0.019-0.16-0.052-0.355
						c-0.035-0.197-0.085-0.434-0.148-0.713c-0.063-0.28-0.14-0.579-0.231-0.901c-0.09-0.321-0.198-0.625-0.323-0.911
						s-0.263-0.533-0.408-0.743c-0.148-0.209-0.304-0.349-0.473-0.42l-4.293,2.744l0.042,0.148c0.084,0.237,0.193,0.585,0.324,1.046
						c0.133,0.462,0.2,0.949,0.2,1.467v0.899c-0.168,0.645-0.398,1.219-0.692,1.729c-0.294,0.511-0.632,0.98-1.017,1.414
						c-0.383,0.432-0.798,0.848-1.246,1.246c-0.446,0.397-0.892,0.813-1.34,1.245h-0.208c-0.071,0-0.154-0.003-0.252-0.009
						c-0.098-0.009-0.148-0.046-0.148-0.116v-7.771c0-0.321-0.115-0.694-0.346-1.121c-0.229-0.425-0.534-0.846-0.911-1.257
						s-0.796-0.789-1.256-1.133c-0.46-0.34-0.921-0.59-1.382-0.743l-3.645,3.268v0.084c0.125,0.167,0.275,0.353,0.45,0.555
						c0.175,0.203,0.346,0.421,0.512,0.65c0.169,0.229,0.315,0.465,0.442,0.701c0.125,0.238,0.201,0.474,0.229,0.712v2.66v17.574
						c0,0.279,0.094,0.622,0.283,1.027c0.189,0.404,0.434,0.806,0.733,1.204c0.3,0.397,0.646,0.754,1.038,1.069
						c0.392,0.314,0.79,0.52,1.193,0.616l4.378-3.266c-0.154-0.099-0.332-0.231-0.535-0.398c-0.203-0.168-0.391-0.356-0.566-0.565
						c-0.173-0.208-0.321-0.437-0.439-0.681c-0.118-0.244-0.177-0.492-0.177-0.744v-6.409c0-0.07,0.027-0.134,0.083-0.188
						c0.056-0.058,0.119-0.119,0.189-0.188c0.083-0.085,0.202-0.206,0.356-0.368c0.153-0.16,0.306-0.317,0.46-0.471
						c0.154-0.154,0.29-0.29,0.407-0.407c0.119-0.119,0.193-0.18,0.221-0.18h0.776l1.256,1.3c0.069,0.068,0.108,0.132,0.115,0.188
						c0.006,0.056,0.01,0.118,0.01,0.188c0.098,0.126,0.181,0.3,0.252,0.523c0.069,0.224,0.129,0.444,0.177,0.66
						c0.05,0.217,0.102,0.491,0.157,0.826v6.535c0,0.364,0.122,0.737,0.366,1.122c0.244,0.383,0.546,0.747,0.9,1.089
						c0.356,0.343,0.745,0.644,1.162,0.901c0.419,0.258,0.796,0.437,1.133,0.533l4.251-3.561c-0.557-0.558-0.973-1.095-1.246-1.613
						C146.833,324.087,146.663,323.535,146.593,322.948z"/>
					<path fill="#FF0000" stroke="#FDB827" stroke-width="1.0134" d="M167.048,321.222c-0.273-0.328-0.409-0.751-0.409-1.268v-9.007
						c0-1.047-0.186-1.958-0.556-2.733c-0.369-0.774-1.029-1.42-1.977-1.937c-0.125,0.069-0.288,0.153-0.481,0.25
						c-0.196,0.098-0.471,0.231-0.827,0.398s-0.811,0.371-1.361,0.607c-0.551,0.236-1.253,0.531-2.105,0.88
						c-0.125-0.126-0.231-0.29-0.315-0.491c-0.083-0.203-0.199-0.424-0.346-0.661c-0.146-0.237-0.355-0.475-0.627-0.712
						c-0.273-0.238-0.667-0.447-1.184-0.63l-2.807,2.368c0.377,0.251,0.673,0.512,0.89,0.776c0.217,0.265,0.379,0.549,0.492,0.848
						c0.113,0.3,0.182,0.632,0.21,0.996c0.027,0.362,0.042,0.775,0.042,1.235v8.232c0,0.307,0.048,0.69,0.146,1.151
						c0.098,0.461,0.252,0.907,0.463,1.341c0.208,0.433,0.477,0.807,0.804,1.121c0.33,0.314,0.732,0.471,1.206,0.471l2.534-2.492
						c-0.098-0.168-0.211-0.322-0.345-0.462s-0.258-0.289-0.378-0.45c-0.119-0.161-0.219-0.328-0.302-0.503
						c-0.085-0.174-0.126-0.375-0.126-0.598v-8.88c0.321-0.268,0.671-0.455,1.047-0.566c0.378-0.111,0.823-0.252,1.339-0.42
						c0.056,0,0.158,0.039,0.304,0.115c0.146,0.077,0.221,0.255,0.221,0.534v9.991c0,0.377,0.064,0.781,0.198,1.215
						s0.326,0.836,0.577,1.205c0.25,0.371,0.551,0.682,0.901,0.932c0.349,0.251,0.747,0.378,1.194,0.378l2.409-2.368
						C167.596,321.839,167.321,321.55,167.048,321.222z"/>
					<path fill="#FF0000" stroke="#FDB827" stroke-width="1.0134" d="M153.682,321.378c-0.118-0.153-0.219-0.308-0.302-0.461
						s-0.126-0.307-0.126-0.46v-11.711c0-0.14-0.063-0.321-0.188-0.545s-0.286-0.446-0.481-0.67s-0.405-0.429-0.629-0.617
						c-0.223-0.188-0.439-0.318-0.649-0.389l-2.785,1.887c0.238,0.237,0.398,0.51,0.481,0.816c0.083,0.308,0.125,0.622,0.125,0.943
						v11.793c0,0.419,0.092,0.778,0.273,1.08c0.181,0.3,0.415,0.555,0.7,0.765c0.288,0.209,0.598,0.378,0.933,0.502
						c0.335,0.126,0.656,0.217,0.963,0.273l2.452-2.367c-0.112-0.126-0.237-0.258-0.377-0.398
						C153.932,321.68,153.803,321.532,153.682,321.378z"/>
				</g>
			</g>
		</g>
	</g>
</g>
<g>
	<path fill="#0074CD" d="M85.81,247.465l-3.963-5.813v-14.267h28.531v14.267l-4.49,6.339l4.444,45.748H163l4.444-45.748
		l-4.226-6.868v-12.151h-4.492l9.511-8.72l9.246-32.494l9.248,32.494l6.604,5.812v-26.681h5.811v-11.89h-3.17v3.171h-2.905v-3.171
		h-3.171v2.906h-3.171v-15.058h4.49l-6.339-25.626l-3.698,14.001v-19.814h3.434l-7.134-29.851l-5.811,24.305h-4.754v-26.421h-15.06
		v30.647l5.813,26.155h-12.682v11.624h-17.172v-12.153h-7.925v-2.907h7.925v-15.586h17.172v15.85h10.04l-8.983-39.627h-18.493
		l-7.396,32.229l-6.87-33.286l-6.075,33.021l-6.34,8.191h6.076v57.328l-2.642-2.377l-8.19-28.004l-7.925,28.004l-3.963,3.7v-3.964
		h-7.662v4.491l-4.225-3.172l-7.397-25.36l-6.869,24.834l-6.604,5.811h27.739v20.341h-2.378v46.013h4.846L85.81,247.465z
		 M143.702,244.104v14.138h-13.871v-14.138h0.018c-0.004-0.062-0.018-0.115-0.018-0.176c0-1.904,1.543-3.446,3.445-3.446
		c1.904,0,3.445,1.542,3.445,3.446c0,0.061-0.014,0.114-0.018,0.176h0.125c-0.004-0.062-0.018-0.115-0.018-0.177
		c0-1.903,1.542-3.445,3.445-3.445c1.904,0,3.445,1.542,3.445,3.445c0,0.062-0.014,0.115-0.018,0.177H143.702z M130.063,227.387
		c0-3.697,3.007-6.704,6.704-6.704c3.695,0,6.703,3.007,6.703,6.704c0,3.696-3.007,6.701-6.703,6.701
		C133.071,234.088,130.063,231.083,130.063,227.387z M121.569,219.1l11.841-33.133h6.803l11.751,33.397v38.878h-4.057l-0.063-0.177
		v-45.255c0.054-0.146,0.087-0.304,0.087-0.47c0-0.757-0.615-1.369-1.369-1.369c-0.756,0-1.371,0.612-1.371,1.369
		c0,0.167,0.035,0.323,0.089,0.471v2.047h-0.046v4.631c-0.028,0-0.058,0.009-0.087,0.009c-1.171,0-2.12-0.95-2.12-2.121
		c0-1.023,0.726-1.876,1.69-2.074l-0.211-0.83c-0.215,0.073-0.442,0.121-0.684,0.121c-1.171,0-2.12-0.949-2.12-2.12
		c0-1.048,0.764-1.914,1.765-2.083l-0.222-0.871c-0.256,0.11-0.54,0.171-0.836,0.171c-1.172,0-2.12-0.948-2.12-2.118
		c0-1.104,0.848-2.002,1.925-2.101L142,204.621c-0.255,0.106-0.534,0.167-0.827,0.167c-1.171,0-2.121-0.95-2.121-2.121
		c0-1.1,0.844-1.995,1.917-2.101l-0.21-0.821c-0.229,0.085-0.475,0.138-0.733,0.138c-1.004,0-1.84-0.697-2.06-1.634h-0.018v-8.233
		c0.055-0.147,0.09-0.304,0.09-0.469c0-0.756-0.615-1.371-1.371-1.371c-0.755,0-1.37,0.615-1.37,1.371
		c0,0.165,0.034,0.324,0.088,0.471v8.662c-0.342,0.71-1.06,1.203-1.901,1.203c-0.291,0-0.568-0.06-0.82-0.164l-0.217,0.839
		c1.118,0.062,2.009,0.976,2.009,2.109c0,1.172-0.95,2.121-2.121,2.121c-0.331,0-0.642-0.083-0.921-0.219l-0.235,0.908
		c1.048,0.128,1.865,1.011,1.865,2.095c0,1.17-0.951,2.118-2.123,2.118c-0.279,0-0.544-0.056-0.79-0.155l-0.216,0.843
		c1.061,0.116,1.89,1.005,1.89,2.096c0,1.174-0.949,2.121-2.121,2.121c-0.289,0-0.563-0.058-0.814-0.164l-0.221,0.856
		c1.034,0.143,1.832,1.019,1.832,2.092c0,1.172-0.949,2.121-2.12,2.121c-0.039,0-0.076-0.01-0.113-0.013v-4.217
		c0,0,0.002-0.001,0.004-0.001v-2.458c0.054-0.147,0.088-0.304,0.088-0.469c0-0.756-0.615-1.371-1.371-1.371
		c-0.754,0-1.369,0.615-1.369,1.371c0,0.166,0.034,0.323,0.088,0.47v45.254l0.004,0.177h-4.123V219.1H121.569z M136.383,139.168
		l8.955,8.718h-16.966L136.383,139.168z"/>
	<polygon fill="#0074CD" points="74.185,248.256 53.051,248.521 49.219,293.737 74.703,293.737 	"/>
	<polygon fill="#0074CD" points="77.62,246.406 77.62,229.236 72.601,229.236 72.601,232.141 69.429,232.141 69.429,229.236 
		64.41,229.236 64.41,232.141 61.24,232.141 61.24,229.236 56.749,229.236 56.749,231.876 53.843,231.876 53.843,229.236 
		49.088,229.236 49.088,241.387 52.786,246.406 	"/>
	<polygon fill="#0074CD" points="104.039,248.256 108.265,242.443 84.224,241.914 88.187,248.256 84.076,293.737 108.149,293.737 	
		"/>
	<polygon fill="#0074CD" points="83.959,229.236 83.696,240.595 108.001,240.595 108.001,229.5 102.716,229.5 102.716,232.405 
		99.282,232.405 99.282,228.972 93.471,228.972 93.471,232.405 89.772,232.405 89.772,229.236 	"/>
	<polygon fill="#0074CD" points="185.67,247.991 189.633,241.914 165.591,241.914 169.819,248.256 165.452,293.737 189.783,293.737 
			"/>
	<polygon fill="#0074CD" points="224.506,266.484 212.353,266.484 208.919,256.444 209.182,247.991 187.255,248.256 
		191.625,293.737 227.03,293.737 	"/>
	<polygon fill="#0074CD" points="213.939,264.106 224.506,264.106 226.884,256.974 211.297,256.974 	"/>
	<rect x="211.297" y="227.385" fill="#0074CD" width="15.322" height="27.739"/>
	<polygon fill="#0074CD" points="223.977,220.252 219.222,195.684 214.467,219.725 210.241,225.536 228.205,225.536 	"/>
	<polygon fill="#0074CD" points="199.673,231.876 194.917,231.876 194.917,235.046 191.748,235.046 191.748,242.443 
		189.106,246.406 209.182,246.406 209.182,231.876 203.901,231.876 203.901,234.782 199.673,234.782 	"/>
	<polygon fill="#0074CD" points="189.633,228.972 184.614,228.972 184.614,232.405 180.388,232.405 180.388,228.972 
		174.575,228.972 174.575,232.67 171.14,232.67 171.14,228.972 165.329,229.236 165.329,240.33 189.633,240.33 	"/>
	<polygon fill="#0074CD" points="185.67,221.574 177.746,193.041 170.348,221.045 162.952,227.12 192.54,227.12 	"/>
	<polygon fill="#0074CD" points="80.261,198.325 73.392,218.666 87.131,218.666 	"/>
	<polygon fill="#0074CD" points="201.257,185.38 194.917,174.548 188.312,185.38 	"/>
	<polygon fill="#0074CD" points="171.14,93.708 166.65,68.875 161.895,93.708 	"/>
	<polygon fill="#0074CD" points="164.008,71.252 159.253,43.514 150.27,93.708 159.78,93.708 	"/>
	<polygon fill="#0074CD" points="141.288,100.048 136.797,123.032 146.044,123.032 	"/>
	<polygon fill="#0074CD" points="166.915,109.56 171.14,102.69 171.14,95.029 147.629,95.029 147.629,102.427 151.855,109.56 	"/>
	<g>
		<polygon fill="#00A4CD" points="59.535,292.472 51.332,291.77 56.958,251.691 63.284,250.757 		"/>
		<polygon fill="#00A4CD" points="56.722,244.662 75.47,242.787 76.175,235.288 53.44,234.351 52.738,240.679 		"/>
		<polygon fill="#00A4CD" points="57.893,225.445 65.159,225.445 65.627,203.415 60.707,221.695 		"/>
		<polygon fill="#00A4CD" points="76.175,216.54 80.393,217.243 80.626,204.119 		"/>
		<polygon fill="#00A4CD" points="92.11,220.992 88.36,224.508 96.33,224.975 96.33,199.432 		"/>
		<polygon fill="#00A4CD" points="86.251,235.055 86.486,237.865 105.469,238.335 106.641,233.413 		"/>
		<polygon fill="#00A4CD" points="91.876,250.052 87.189,290.361 95.391,289.894 94.923,244.193 87.657,243.727 		"/>
		<polygon fill="#00A4CD" points="116.014,272.316 116.014,291.535 120.702,292.706 121.404,273.723 		"/>
		<polygon fill="#00A4CD" points="112.968,269.271 123.046,268.567 125.857,261.302 112.733,261.067 		"/>
		<polygon fill="#00A4CD" points="145.075,260.13 152.574,270.207 160.308,270.207 162.184,259.661 		"/>
		<polygon fill="#00A4CD" points="151.168,274.191 152.106,290.128 158.902,290.361 159.84,272.785 		"/>
		<polygon fill="#00A4CD" points="172.729,248.646 169.448,292.472 177.182,293.175 174.37,247.709 175.307,244.662 
			169.448,244.193 		"/>
		<polygon fill="#00A4CD" points="193.587,252.396 195.462,290.596 209.524,291.77 209.757,264.582 205.774,257.786 
			206.008,252.631 		"/>
		<polygon fill="#00A4CD" points="214.445,258.488 215.617,262.474 219.835,262.942 217.96,258.255 		"/>
		<polygon fill="#00A4CD" points="213.976,253.101 217.258,253.101 217.727,229.196 213.742,228.961 		"/>
		<polygon fill="#00A4CD" points="216.79,220.758 214.212,223.335 219.835,223.571 219.602,202.711 		"/>
		<polygon fill="#00A4CD" points="202.494,238.101 202.026,243.021 205.541,242.318 205.541,238.57 		"/>
		<polygon fill="#00A4CD" points="198.744,238.335 199.446,242.787 195.696,242.787 196.167,238.804 		"/>
		<polygon fill="#00A4CD" points="187.728,234.585 187.963,237.633 167.808,238.57 169.683,233.882 		"/>
		<polygon fill="#00A4CD" points="174.604,220.522 169.214,224.742 178.588,225.211 177.885,200.134 		"/>
		<polygon fill="#00A4CD" points="187.496,191.932 187.728,198.025 190.775,198.261 190.775,192.399 		"/>
		<polygon fill="#00A4CD" points="193.821,192.399 194.056,197.088 196.869,197.323 196.869,192.166 		"/>
		<polygon fill="#00A4CD" points="195.227,183.963 191.712,183.729 194.759,178.572 		"/>
		<polygon fill="#00A4CD" points="187.728,172.715 180.932,172.949 185.151,157.012 		"/>
		<polygon fill="#00A4CD" points="166.402,213.729 176.949,184.433 176.011,163.34 163.589,163.809 		"/>
		<polygon fill="#00A4CD" points="113.67,191.932 113.906,185.604 130.076,186.072 123.046,205.994 115.077,205.994 		"/>
		<polygon fill="#00A4CD" points="110.156,178.808 109.218,181.386 125.155,183.496 126.092,178.104 		"/>
		<polygon fill="#00A4CD" points="109.921,157.247 105.938,162.637 112.733,161.934 113.67,138.732 		"/>
		<polygon fill="#00A4CD" points="128.904,130.764 129.138,136.154 144.606,136.857 144.372,129.827 		"/>
		<polygon fill="#00A4CD" points="154.215,142.249 162.184,160.763 162.184,115.297 155.386,115.297 		"/>
		<polygon fill="#00A4CD" points="175.776,138.732 172.495,140.84 178.353,141.31 177.651,123.733 		"/>
		<polygon fill="#00A4CD" points="149.996,97.954 149.527,102.407 169.448,101.234 170.388,96.548 		"/>
		<polygon fill="#00A4CD" points="153.278,90.923 159.137,90.689 159.605,53.894 		"/>
		<polygon fill="#00A4CD" points="164.527,91.393 166.636,91.393 166.636,77.565 		"/>
	</g>
	<g>
		<polygon fill="#83E1FF" points="61.931,253.678 59.338,253.678 55.568,289.255 60.987,289.962 		"/>
		<polygon fill="#83E1FF" points="92.089,263.337 89.968,288.077 97.743,287.372 97.273,263.104 		"/>
		<polygon fill="#83E1FF" points="115.415,262.867 115.415,267.343 122.719,266.872 122.719,263.337 		"/>
		<polygon fill="#83E1FF" points="152.407,261.218 152.171,265.693 160.183,264.986 159.709,261.218 		"/>
		<polygon fill="#83E1FF" points="173.613,261.924 173.613,291.611 176.675,291.376 178.088,261.688 		"/>
		<polygon fill="#83E1FF" points="195.054,255.091 197.409,289.255 202.828,288.784 200.707,255.327 		"/>
		<polygon fill="#83E1FF" points="110.23,189.825 111.881,213.151 115.415,212.681 118.95,191.476 		"/>
		<polygon fill="#83E1FF" points="166.779,198.778 169.606,192.653 169.606,166.263 165.131,166.263 		"/>
		<polygon fill="#83E1FF" points="151.23,96.993 151.23,101.94 153.584,101.705 153.819,96.286 		"/>
		<polygon fill="#83E1FF" points="158.297,96.286 158.532,101.705 161.36,100.527 160.889,96.286 		"/>
		<polygon fill="#83E1FF" points="165.837,96.993 165.602,101.232 167.721,102.412 168.194,97.465 		"/>
	</g>
	<rect x="154.528" y="177.338" fill="#00497E" width="6.125" height="14.843"/>
	<rect x="166.779" y="146" fill="#00497E" width="6.126" height="15.314"/>
	<rect x="130.73" y="151.656" fill="#00497E" width="4.477" height="11.309"/>
	<rect x="137.799" y="151.656" fill="#00497E" width="4.24" height="11.545"/>
	<rect x="137.563" y="167.206" fill="#00497E" width="4.477" height="11.075"/>
	<rect x="130.495" y="167.206" fill="#00497E" width="4.712" height="11.075"/>
	<rect x="64.287" y="252.971" fill="#00497E" width="5.655" height="15.787"/>
	<rect x="95.858" y="250.144" fill="#00497E" width="4.006" height="14.843"/>
	<rect x="176.438" y="249.908" fill="#00497E" width="4.007" height="15.079"/>
	<rect x="219.556" y="231.766" fill="#00497E" width="4.242" height="12.487"/>
	<rect x="124.368" y="276.297" fill="#00497E" width="22.384" height="17.442"/>
	<g>
		<polygon fill="#00497E" points="141.052,267.107 131.774,267.107 129.93,268.992 142.742,268.992 		"/>
		<polygon fill="#00497E" points="125.546,273.469 146.75,273.469 144.851,271.349 127.622,271.349 		"/>
		<polygon fill="#00497E" points="136.62,262.159 133.62,265.224 139.364,265.224 		"/>
	</g>
	<g>
		<rect x="64.425" y="162.101" fill="#00497E" width="2.281" height="25.339"/>
		<path fill="#B62300" d="M68.029,162.346c0,0,0,8.543,0,9.223c5.096,1.02,16.357-3.204,18.688-2.378
			c2.33,0.825-10.436,4.175-10.339,6.458c0.098,2.28,12.426,1.649,12.913,2.377c0.486,0.728-1.262,0.923-1.262,0.923
			s3.736,0.339,2.864-1.407c-0.874-1.748-10.339-2.088-9.127-3.059c1.215-0.97,9.563-3.932,9.175-6.457
			c-0.389-2.523-11.164-3.155-13.688-3.397C74.728,164.384,68.029,162.346,68.029,162.346z"/>
		<path fill="#FF656F" d="M69.048,164.189c0,0,0.631,5.194,0.824,6.166c7.282-0.292,13.736-3.399,16.457-3.252
			c2.717,0.145,2.959,0.678,2.959,0.678s1.893-1.845-14.708-2.086C71.474,165.405,69.048,164.189,69.048,164.189z"/>
		<path fill="#FF656F" d="M86.037,176.713c0,0-9.562-0.195-8.155-1.553c1.407-1.358,4.369-2.039,4.369-2.039s-2.136,1.02-1.991,1.94
			C80.406,175.985,86.037,176.713,86.037,176.713z"/>
		
			<radialGradient id="SVGID_1_" cx="-377.5249" cy="429.3555" r="2.3124" gradientTransform="matrix(1 0 0 -1 444 587.5742)" gradientUnits="userSpaceOnUse">
			<stop  offset="0" style="stop-color:#FFFF9F"/>
			<stop  offset="1" style="stop-color:#FFB800"/>
		</radialGradient>
		<circle fill="url(#SVGID_1_)" cx="65.565" cy="159.093" r="2.087"/>
		<rect x="65.55" y="162.5" fill="#0074CD" width="0.619" height="24.328"/>
	</g>
	<g>
		<rect x="218.567" y="162.149" fill="#00497E" width="2.281" height="25.338"/>
		<path fill="#B62300" d="M222.171,162.392c0,0,0,8.543,0,9.222c5.095,1.02,16.357-3.204,18.688-2.378
			c2.33,0.825-10.436,4.175-10.34,6.457c0.099,2.282,12.427,1.65,12.913,2.377c0.486,0.729-1.264,0.922-1.264,0.922
			s3.737,0.338,2.866-1.407c-0.874-1.747-10.34-2.088-9.127-3.057c1.215-0.971,9.563-3.934,9.175-6.457
			c-0.387-2.523-11.164-3.154-13.688-3.398S222.171,162.392,222.171,162.392z"/>
		<path fill="#FF656F" d="M223.19,164.237c0,0,0.631,5.194,0.825,6.164c7.281-0.292,13.736-3.399,16.455-3.252
			c2.719,0.146,2.961,0.68,2.961,0.68s1.894-1.845-14.708-2.087C225.617,165.45,223.19,164.237,223.19,164.237z"/>
		<path fill="#FF656F" d="M240.178,176.76c0,0-9.561-0.194-8.155-1.553c1.408-1.359,4.37-2.039,4.37-2.039s-2.136,1.019-1.99,1.941
			C234.549,176.033,240.178,176.76,240.178,176.76z"/>
		
			<radialGradient id="SVGID_2_" cx="-223.3838" cy="429.3066" r="2.3115" gradientTransform="matrix(1 0 0 -1 444 587.5742)" gradientUnits="userSpaceOnUse">
			<stop  offset="0" style="stop-color:#FFFF9F"/>
			<stop  offset="1" style="stop-color:#FFB800"/>
		</radialGradient>
		<circle fill="url(#SVGID_2_)" cx="219.708" cy="159.14" r="2.087"/>
		<rect x="219.692" y="162.547" fill="#0074CD" width="0.616" height="24.329"/>
	</g>
	<g>
		<rect x="158.672" y="20.103" fill="#00497E" width="2.282" height="14.817"/>
		<path fill="#B62300" d="M162.276,20.346c0,0,0,8.542,0,9.223c5.096,1.019,16.358-3.204,18.689-2.378
			c2.331,0.825-10.436,4.175-10.339,6.457c0.098,2.282,12.427,1.65,12.913,2.378c0.485,0.729-1.264,0.921-1.264,0.921
			s3.738,0.34,2.864-1.407c-0.873-1.748-10.338-2.088-9.125-3.058c1.214-0.97,9.563-3.932,9.173-6.457
			c-0.388-2.523-11.164-3.154-13.687-3.397C168.975,22.384,162.276,20.346,162.276,20.346z"/>
		<path fill="#FF656F" d="M163.295,22.19c0,0,0.631,5.194,0.825,6.165c7.282-0.291,13.736-3.399,16.455-3.252
			c2.719,0.146,2.961,0.679,2.961,0.679s1.893-1.844-14.708-2.086C165.723,23.403,163.295,22.19,163.295,22.19z"/>
		<path fill="#FF656F" d="M180.287,34.714c0,0-9.563-0.195-8.157-1.553c1.408-1.359,4.37-2.039,4.37-2.039s-2.137,1.02-1.991,1.941
			C174.655,33.985,180.287,34.714,180.287,34.714z"/>
		
			<radialGradient id="SVGID_3_" cx="-283.2749" cy="571.3545" r="2.3115" gradientTransform="matrix(1 0 0 -1 444 587.5742)" gradientUnits="userSpaceOnUse">
			<stop  offset="0" style="stop-color:#FFFF9F"/>
			<stop  offset="1" style="stop-color:#FFB800"/>
		</radialGradient>
		<circle fill="url(#SVGID_3_)" cx="159.814" cy="17.093" r="2.088"/>
		<rect x="159.799" y="20.335" fill="#0074CD" width="0.617" height="14.226"/>
	</g>
	<g>
		<rect x="112.335" y="101.476" fill="#00497E" width="2.281" height="14.817"/>
		<path fill="#B62300" d="M115.939,101.719c0,0,0,8.542,0,9.223c5.095,1.019,16.357-3.205,18.688-2.379
			c2.328,0.826-10.437,4.175-10.339,6.458c0.096,2.28,12.426,1.649,12.911,2.377c0.486,0.729-1.262,0.922-1.262,0.922
			s3.738,0.34,2.864-1.406c-0.874-1.749-10.339-2.09-9.125-3.059c1.214-0.971,9.561-3.933,9.173-6.457
			c-0.389-2.523-11.163-3.155-13.688-3.398C122.638,103.758,115.939,101.719,115.939,101.719z"/>
		<path fill="#FF656F" d="M116.958,103.563c0,0,0.631,5.194,0.825,6.164c7.282-0.291,13.738-3.398,16.455-3.252
			c2.718,0.146,2.963,0.681,2.963,0.681s1.893-1.845-14.709-2.088C119.385,104.777,116.958,103.563,116.958,103.563z"/>
		<path fill="#FF656F" d="M133.947,116.087c0,0-9.562-0.195-8.155-1.553c1.407-1.359,4.369-2.039,4.369-2.039
			s-2.135,1.019-1.99,1.941C128.317,115.357,133.947,116.087,133.947,116.087z"/>
		
			<radialGradient id="SVGID_4_" cx="-329.6138" cy="489.9814" r="2.3108" gradientTransform="matrix(1 0 0 -1 444 587.5742)" gradientUnits="userSpaceOnUse">
			<stop  offset="0" style="stop-color:#FFFF9F"/>
			<stop  offset="1" style="stop-color:#FFB800"/>
		</radialGradient>
		<circle fill="url(#SVGID_4_)" cx="113.476" cy="98.468" r="2.088"/>
		<rect x="113.46" y="101.709" fill="#0074CD" width="0.619" height="14.227"/>
	</g>
	
		<radialGradient id="SVGID_5_" cx="-283.2769" cy="549.6729" r="2.3125" gradientTransform="matrix(1 0 0 -1 444 587.5742)" gradientUnits="userSpaceOnUse">
		<stop  offset="0" style="stop-color:#FFFF9F"/>
		<stop  offset="1" style="stop-color:#FFB800"/>
	</radialGradient>
	<circle fill="url(#SVGID_5_)" cx="159.812" cy="38.775" r="2.088"/>
	
		<radialGradient id="SVGID_6_" cx="-223.063" cy="397.5635" r="2.3129" gradientTransform="matrix(1 0 0 -1 444 587.5742)" gradientUnits="userSpaceOnUse">
		<stop  offset="0" style="stop-color:#FFFF9F"/>
		<stop  offset="1" style="stop-color:#FFB800"/>
	</radialGradient>
	<circle fill="url(#SVGID_6_)" cx="220.027" cy="190.885" r="2.088"/>
	
		<radialGradient id="SVGID_7_" cx="-329.4966" cy="467.9795" r="2.3131" gradientTransform="matrix(1 0 0 -1 444 587.5742)" gradientUnits="userSpaceOnUse">
		<stop  offset="0" style="stop-color:#FFFF9F"/>
		<stop  offset="1" style="stop-color:#FFB800"/>
	</radialGradient>
	<circle fill="url(#SVGID_7_)" cx="113.593" cy="120.47" r="2.088"/>
	
		<radialGradient id="SVGID_8_" cx="-346.6953" cy="398.7783" r="2.3118" gradientTransform="matrix(1 0 0 -1 444 587.5742)" gradientUnits="userSpaceOnUse">
		<stop  offset="0" style="stop-color:#FFFF9F"/>
		<stop  offset="1" style="stop-color:#FFB800"/>
	</radialGradient>
	<circle fill="url(#SVGID_8_)" cx="96.394" cy="189.669" r="2.088"/>
	
		<radialGradient id="SVGID_9_" cx="-377.8564" cy="397.7676" r="2.3131" gradientTransform="matrix(1 0 0 -1 444 587.5742)" gradientUnits="userSpaceOnUse">
		<stop  offset="0" style="stop-color:#FFFF9F"/>
		<stop  offset="1" style="stop-color:#FFB800"/>
	</radialGradient>
	<circle fill="url(#SVGID_9_)" cx="65.233" cy="190.681" r="2.088"/>
	<polygon fill="none" points="136.383,139.168 128.372,147.886 145.337,147.886 	"/>
	<path fill="#00497E" d="M136.767,220.683c-3.696,0-6.704,3.007-6.704,6.704c0,3.696,3.007,6.701,6.704,6.701
		c3.695,0,6.703-3.005,6.703-6.701C143.47,223.689,140.462,220.683,136.767,220.683z M136.767,232.501
		c-2.82,0-5.114-2.294-5.114-5.114s2.294-5.114,5.114-5.114s5.114,2.294,5.114,5.114S139.587,232.501,136.767,232.501z"/>
	<g>
		<path d="M212.898,295.105c-0.258-0.254-0.568-0.381-0.932-0.381c-0.365,0-0.676,0.127-0.932,0.381
			c-0.259,0.257-0.386,0.566-0.386,0.929c0,0.365,0.127,0.676,0.386,0.935c0.256,0.257,0.566,0.386,0.932,0.386
			c0.363,0,0.674-0.129,0.932-0.386c0.256-0.259,0.383-0.569,0.383-0.935C213.281,295.672,213.154,295.362,212.898,295.105
			 M212.395,296.291c-0.026,0.099-0.071,0.174-0.138,0.227c-0.065,0.051-0.147,0.077-0.244,0.077c-0.153,0-0.271-0.056-0.351-0.167
			s-0.122-0.249-0.122-0.412c0-0.115,0.026-0.223,0.076-0.322c0.077-0.155,0.201-0.233,0.376-0.233c0.123,0,0.217,0.033,0.282,0.1
			c0.066,0.066,0.103,0.145,0.112,0.232h0.216c-0.016-0.213-0.112-0.367-0.289-0.459c-0.103-0.052-0.218-0.076-0.346-0.076
			c-0.2,0-0.369,0.072-0.493,0.221c-0.126,0.147-0.19,0.329-0.19,0.547c0,0.235,0.069,0.423,0.21,0.563
			c0.14,0.141,0.309,0.212,0.507,0.212c0.156,0,0.289-0.046,0.403-0.136c0.111-0.087,0.181-0.215,0.209-0.374L212.395,296.291
			L212.395,296.291z M212.763,295.234c0.218,0.221,0.328,0.487,0.328,0.8c0,0.315-0.11,0.584-0.326,0.805
			c-0.22,0.224-0.487,0.335-0.799,0.335c-0.314,0-0.58-0.111-0.8-0.335c-0.218-0.221-0.325-0.489-0.325-0.805
			c0-0.313,0.109-0.579,0.328-0.8c0.22-0.223,0.484-0.333,0.797-0.333C212.278,294.9,212.545,295.012,212.763,295.234z"/>
		<path d="M214.679,297.354c0.451,0,0.771-0.2,0.956-0.599c0.104-0.225,0.157-0.477,0.157-0.758c0-0.361-0.09-0.659-0.267-0.893
			c-0.201-0.254-0.48-0.382-0.843-0.382h-1.066v2.631H214.679 M213.975,295.028h0.633c0.288,0,0.498,0.09,0.627,0.272
			c0.129,0.18,0.195,0.433,0.195,0.758c0,0.085-0.01,0.178-0.026,0.276c-0.031,0.166-0.081,0.304-0.154,0.408
			c-0.086,0.134-0.2,0.222-0.341,0.269c-0.076,0.025-0.174,0.038-0.295,0.038h-0.638L213.975,295.028L213.975,295.028z"/>
		<rect x="216.33" y="294.724" width="0.361" height="2.631"/>
		<path d="M217.167,296.506h0.334c0.009,0.149,0.044,0.27,0.106,0.362c0.117,0.175,0.327,0.263,0.624,0.263
			c0.135,0,0.258-0.019,0.366-0.059c0.213-0.073,0.32-0.206,0.32-0.397c0-0.144-0.046-0.244-0.136-0.306
			c-0.089-0.059-0.232-0.112-0.425-0.155L218,296.133c-0.231-0.054-0.396-0.111-0.493-0.175c-0.167-0.11-0.251-0.273-0.251-0.492
			c0-0.237,0.083-0.43,0.244-0.583c0.165-0.151,0.396-0.227,0.696-0.227c0.277,0,0.511,0.066,0.703,0.2
			c0.191,0.133,0.288,0.345,0.288,0.639h-0.334c-0.018-0.141-0.058-0.248-0.113-0.323c-0.109-0.138-0.294-0.208-0.556-0.208
			c-0.209,0-0.361,0.045-0.453,0.134c-0.092,0.087-0.138,0.191-0.138,0.309c0,0.128,0.055,0.223,0.159,0.283
			c0.072,0.039,0.23,0.085,0.479,0.144l0.37,0.083c0.178,0.04,0.315,0.098,0.413,0.167c0.167,0.122,0.249,0.301,0.249,0.535
			c0,0.291-0.107,0.501-0.318,0.625c-0.212,0.125-0.457,0.189-0.739,0.189c-0.327,0-0.582-0.084-0.768-0.252
			C217.253,297.017,217.164,296.789,217.167,296.506"/>
		<polyline points="219.716,297.354 219.716,294.724 220.135,294.724 221.466,296.854 221.466,294.724 221.804,294.724 
			221.804,297.354 221.406,297.354 220.056,295.224 220.056,297.354 219.716,297.354 		"/>
		<polyline points="222.398,297.354 222.398,294.724 224.317,294.724 224.317,295.045 222.748,295.045 222.748,295.846 
			224.198,295.846 224.198,296.148 222.748,296.148 222.748,297.041 224.344,297.041 224.344,297.354 222.398,297.354 		"/>
		<polyline points="225.602,296.293 224.609,294.724 225.023,294.724 225.78,295.987 226.536,294.724 226.953,294.724 
			225.958,296.293 225.958,297.354 225.602,297.354 225.602,296.293 		"/>
	</g>
</g>
</svg>
